<svg height="32" viewBox="0 0 32 32" width="32" xmlns="http://www.w3.org/2000/svg"><g fill="none"><circle cx="16" cy="16" fill="#000" r="16"/><g fill="#fff" transform="translate(8 8)"><path d="m.8 17c-.45 0-.8-3.45-.8-3.45 0-.3.35-.5.8-.5s.8.25.8.5c-.05 0-.4 3.45-.8 3.45z"/><path d="m15.95 3.75c1.1-.6 2.05-2.15 1.9-2.9 0-.1-.1-.2-.2-.25-.15-.05-.3 0-.4.1-1.2.95-2.6 1.6-4.1 1.95-1.55.45-5.7.9-6.45 1.05-2.05.4-3.7 1.8-4.45 3.75-.45 1.25-.35 2.75-.35 4-.05.9 0 1.8.1 2.7v.05.05.05l.05.05c.15.1.3.1.45 0 .05-.05.1-.05.1-.1.25-.3.4-.9.65-1.35.6-1 1.65-1 2.9-.5.2.1.45.15.65.2h.05c.45.15.95.25 1.4.25 1.65 0 3.15-1.05 3.75-2.6.25-.55.8-2.35 1-2.8.05-.1.1-.15.2-.2.35-.1.6-.2.7-.2 1.3-.5 2.4-1.45 3.05-2.65.25-.5.45-1.05.55-1.65 0-.05-.05-.1-.1-.05-.5.5-1.1.85-1.75 1 .25.1.25.1.3.05zm-4.7 6.05c-.55 1.55-2.25 2.35-3.8 1.85-1.2-.4-2-1.45-2-2.7 0-.05.05-.1.05-.1.35-.15.7-.25 1.05-.35.05 0 .1 0 .1.05-.1 1 .55 1.85 1.55 2h.1c.05 0 .05 0 .1-.05s0-.05-.05-.1c-.4-.35-.4-.95-.05-1.3s.95-.4 1.3-.05c.15.15.25.35.3.6 0 .05 0 .05.05.05s.05 0 .05-.05c.05-.1.1-.2.15-.3.15-.45.15-.95-.1-1.4 0-.05 0-.1.05-.1.4-.05.75-.1 1.05-.2.05 0 .1 0 .1.05.25.75.25 1.45 0 2.1zm7.75-4.25c0 .2-.15.3-.35.3s-.3-.15-.3-.3c0-.2.15-.3.3-.3s.35.15.35.3z"/></g></g></svg>