<svg height="156" viewBox="0 0 330 156" width="330" xmlns="http://www.w3.org/2000/svg"><g fill="none" fill-rule="evenodd"><path d="m0 0h330v156h-330z" fill="#fff" fill-opacity=".01"/><g transform="translate(121 50)"><g transform="matrix(1 0 0 -1 22.136082 39.191753)"><circle cx="19.757444" cy="19.295822" fill="#f7f9fa" r="6.924338"/><g fill="#000"><path d="m42.6362559 21.8989192c-.0407573-.2221505-.1579621-.3561594-.3425817-.4166114-.3965577-.1299929-.8072151.1775513-.8102995.1786081-3.3606058 2.3462134-5.6172391 3.0225992-7.7980859 3.6009091-2.9783683.7896805-10.8396831 1.5966933-12.2498862 1.8962054-4.0056729.8507666-7.1331909 3.2796258-8.4332391 6.8255785-.0396207.1080466-.0769326.2170388-.1121899.3268866 10.6009791-5.4621988 16.5394552-.5170984 19.9002073 2.7653729.4383638-1.2171304.8930038-2.5372381 1.10991-3.0408964.1094939-.2282802.1987194-.2669611.4044888-.329104.6726058-.1701533 1.1273252-.327413 1.3282478-.3859627.7514767-.2198254 3.964475-1.5402573 5.8060446-4.873994.3831188-.694141.8581067-1.8623861 1.0887711-2.9756749.0209294-.1008238-.0909879-.15113-.1683167-.0771503-.8781549.8412549-2.0594561 1.6081073-3.3379139 1.8598497-.1075112.0211371-.1240344-.0424855-.0202685-.0972305 2.0499828-1.0849651 3.8765714-3.9376224 3.6351118-5.2567861z" transform="matrix(.99254615 -.12186934 -.12186934 -.99254615 3.773293 61.692802)"/><path d="m15.4477642.06647249c24.477236.01574886 24.0325842 8.82648374 22.4006442 11.85003231-1.63194 3.0235485-3.7243799 6.1985486-6.026028 8.9637393-3.8796868 4.6610398-6.7927997 8.1020635-12.2188104 7.8019022-2.7070835 0-5.4184382-.9337589-7.2210411-2.6277317l-12.12239282.4905811c-.08491277.0034383-.15653545-.0626099-.15997372-.1475227-.00230446-.0569116.02701753-.1104409.0762173-.1391399l3.83965619-2.2401913-.35694188-.0003987c-.08498204-.0002344-.1536836-.0693159-.15344924-.154298.00012516-.0453858.02028043-.0884014.05507538-.1175425l7.88423559-6.6033167c.9338315-1.6997808 2.288283-3.2174957 3.6097178-4.0613884.7343605-.4689763-3.0162831-13.2147951.3930907-13.01472501zm4.1558058 17.07511071c-1.6996472 0-3.0774835 1.3778363-3.0774835 3.0774835s1.3778363 3.0774835 3.0774835 3.0774835 3.0774835-1.3778363 3.0774835-3.0774835-1.3778363-3.0774835-3.0774835-3.0774835z"/><circle cx="12.063735" cy="11.602113" r="6.924338"/></g><path d="m8.216881 18.680325h22.773378v3.077484h-22.773378z" fill="#fff" stroke="#000" stroke-width=".5" transform="matrix(.70710678 .70710678 -.70710678 .70710678 20.038792 -7.93979)"/><path d="m8.216881 18.680325h22.773378v3.077484h-22.773378z" fill="#fff" stroke="#000" stroke-width=".5"/></g><path d="m3.03082887 53.7072165c.37159587 0 .69383917-.0508041.96672989-.1524124.27289072-.1016082.49788042-.236602.67496908-.4049814.17708865-.1683794.30917938-.3657897.39627216-.5922309.08709278-.2264413.13063918-.467398.13063918-.7228702 0-.284503-.07548042-.5530391-.22644124-.8056082-.15096083-.2525691-.37449897-.4427216-.67061443-.5704577.16837938-.156767.29901855-.3396619.39191752-.5486846.09289897-.2090226.13934845-.4209484.13934845-.6357773 0-.4993319-.16837938-.9014103-.50513814-1.206235-.33675876-.3048248-.84770309-.4572372-1.53283299-.4572372h-2.09893608v6.0964949zm-.30482475-3.596932h-.79254433v-1.4109031h.77512578c.24966598 0 .46159175.0551588.63577732.1654763.17418556.1103176.26127835.2874062.26127835.531266 0 .1857979-.07112578.3512742-.21337732.4964289-.14225155.1451546-.36433815.2177319-.6662598.2177319zm.30482475 2.5082722h-1.09736908v-1.4631588h1.0886598c.11612371 0 .23079587.0116124.34401649.0348372.11322062.0232247.21482887.0609649.30482474.1132206.08999588.0522556.1625732.1233814.21773196.2133773.05515877.0899959.08273815.1988618.08273815.3265979 0 .1335423-.02612784.2482145-.07838351.3440165-.05225567.0958021-.12192989.1756371-.20902268.2395052-.08709278.063868-.18724948.111769-.3004701.1437031-.11322062.031934-.23079588.047901-.35272577.047901zm4.40689484 1.1757526c.08709278 0 .17999175-.0087093.27869691-.0261279.09870515-.0174185.19160412-.0493525.27869691-.095802l-.09580207-.5051382c-.04644948.0174186-.10160824.0333856-.16547628.0479011-.06386805.0145154-.13934846.0217732-.22644124.0217732-.18579794 0-.33240413-.0638681-.43981856-.1916042-.10741443-.127736-.16112165-.3077278-.16112165-.5399752v-4.8946145h-.63577732v4.8771959c0 .2554722.03483712.467398.10451134.6357773.06967423.1683794.15967011.3019217.26998763.4006268.11031753.0987052.23515052.1683794.37449897.2090227s.27869691.060965.41804536.060965zm1.71572784-5.3649155c.12773608 0 .2380536-.047901.33095257-.1437031.09289897-.095802.13934846-.2104742.13934846-.3440165 0-.1277361-.04644949-.2380536-.13934846-.3309526-.09289897-.0928989-.20321649-.1393484-.33095257-.1393484-.13354227 0-.24676289.0464495-.33966186.1393484-.09289897.092899-.13934845.2032165-.13934845.3309526 0 .1335423.04644948.2482145.13934845.3440165.09289897.0958021.20611959.1437031.33966186.1437031zm.31353402 5.2778227v-4.5026969h-.63577732v4.5026969zm2.03797113 0v-3.0482474c.1741856-.2961155.4035299-.5356206.688033-.7185155.2845031-.1828948.5777155-.2743423.8796371-.2743423.1974103 0 .3817567.0304825.5530392.0914475.1712825.0609649.3193402.1538639.4441732.2786969s.2235381.2816.2961154.470301c.0725774.188701.108866.4107876.108866.6662598v2.5344h.6357773v-2.5779464c0-.3657897-.0551587-.6793237-.1654763-.9406021-.1103175-.2612783-.2540206-.4746556-.4311092-.6401319-.1770887-.1654763-.3774021-.2859547-.6009402-.3614351-.2235382-.0754804-.451431-.1132206-.6836784-.1132206-.3832082 0-.7214185.0783835-1.0146309.2351505s-.5414268.3599835-.7446433.6096495v-.7141608h-.6009402v4.5026969zm6.8367835.1045113c.3251464 0 .6415835-.0696742.9493113-.2090226.3077279-.1393485.5777155-.3367588.8099629-.592231v.6967423h.6009402v-6.0964949h-.6183587v2.2557031c-.2554722-.2845031-.531266-.4877195-.8273815-.6096494-.2961154-.1219299-.6009402-.1828949-.9144742-.1828949-.3425649 0-.6502928.0653196-.9231835.1959588s-.5022351.3062763-.688033.5269113c-.1857979.2206351-.3280495.4732041-.4267546.7577072-.0987052.2845031-.1480578.5835217-.1480578.8970557 0 .3077278.0493526.6038433.1480578.8883464.0987051.2845031.2409567.5356206.4267546.7533526.1857979.2177319.4151423.3919175.688033.5225567.2728907.1306391.5806186.1959587.9231835.1959587zm.0696742-.5922309c-.2496659 0-.4732041-.0493526-.6706144-.1480577-.1974103-.0987052-.3657897-.2293444-.5051381-.3919176-.1393485-.1625731-.2453114-.3498226-.3178887-.5617484s-.108866-.4340124-.108866-.6662598.0362887-.4557856.108866-.6706144c.0725773-.2148289.1785402-.4049815.3178887-.5704578.1393484-.1654763.3077278-.297567.5051381-.3962721.1974103-.0987052.4209485-.1480578.6706144-.1480578.1916042 0 .3715959.0275794.5399753.0827382.1683794.0551587.3222433.1291876.4615917.2220866.1393485.092899.2641815.1974103.374499.313534s.2032165.2380536.2786969.3657897v1.5937979c-.0754804.1277361-.1683794.249666-.2786969.3657897s-.2351505.2191835-.374499.3091794c-.1393484.0899959-.2932123.1625732-.4615917.217732-.1683794.0551587-.3483711.0827381-.5399753.0827381zm8.6308949.5922309c.249666 0 .4978804-.0275793.7446433-.0827381s.4804618-.1291876.7010969-.2220866c.220635-.092899.4224-.2032165.6052948-.3309526.1828949-.1277361.3353072-.2612783.4572371-.4006268l-.7577072-.8883464c-.1799917.2032165-.4020783.3774021-.6662598.5225567-.2641814.1451547-.5936824.217732-.9885031.217732-.2903092 0-.5515876-.0537072-.783835-.1611217-.2322474-.1074144-.4311093-.252569-.5965856-.4354639-.1654763-.1828948-.2932123-.3933691-.3832082-.6314227s-.1349938-.4877196-.1349938-.7489979c0-.2612784.0435464-.5094928.1306391-.7446433.0870928-.2351505.2104743-.4427217.3701444-.6227134.1596701-.1799918.3527257-.3236949.579167-.4311093.2264412-.1074144.4819134-.1611216.7664165-.1611216.2438598 0 .5080412.047901.7925443.1437031.2845031.095802.5602969.2598268.8273814.4920742l.7228701-.905765c-.2786969-.2728907-.611101-.4935257-.9972123-.6619051-.3861114-.1683794-.8143176-.2525691-1.2846186-.2525691-.4993319 0-.9449567.0914474-1.3368742.2743423-.3919175.1828948-.7228701.4224-.9928577.7185154-.2699877.2961155-.4761073.6328743-.6183588 1.0102763-.1422515.3774021-.2133773.7577072-.2133773 1.1409155 0 .4006268.0682227.7910928.204668 1.1713979.1364454.3803052.3353072.7185155.5965856 1.014631.2612783.2961154.5806185.5327175.9580206.7098061.3774021.1770887.8099629.265633 1.2976825.265633zm3.9540123-.1045113v-3.0482474c.1741856-.2961155.4035299-.5356206.688033-.7185155.2845031-.1828948.5777155-.2743423.8796372-.2743423.1974103 0 .3817567.0304825.5530391.0914475.1712825.0609649.3193402.1538639.4441732.2786969s.2235382.2816.2961155.470301.108866.4107876.108866.6662598v2.5344h.6357773v-2.5779464c0-.3657897-.0551588-.6793237-.1654763-.9406021-.1103175-.2612783-.2540206-.4746556-.4311093-.6401319-.1770886-.1654763-.377402-.2859547-.6009402-.3614351-.2235381-.0754804-.4514309-.1132206-.6836783-.1132206-.3774021 0-.7083547.0740289-.9928578.2220866s-.5283629.3411134-.7315794.579167v-2.2644124h-.6357773v6.0964949zm5.2516949-5.2778227c.1277361 0 .2380536-.047901.3309526-.1437031.0928989-.095802.1393484-.2104742.1393484-.3440165 0-.1277361-.0464495-.2380536-.1393484-.3309526-.092899-.0928989-.2032165-.1393484-.3309526-.1393484-.1335423 0-.2467629.0464495-.3396619.1393484-.0928989.092899-.1393484.2032165-.1393484.3309526 0 .1335423.0464495.2482145.1393484.3440165.092899.0958021.2061196.1437031.3396619.1437031zm.313534 5.2778227v-4.5026969h-.6357773v4.5026969zm3.4488742.1045113c.4238516 0 .7925444-.0841897 1.1060784-.252569.313534-.1683794.5602969-.3657897.7402887-.592231l-.4093361-.4180453c-.1335423.156767-.3164371.3062763-.5486846.4485278-.2322474.1422516-.5254598.2133773-.8796371.2133773-.220635 0-.4340124-.0420948-.6401319-.1262845-.2061196-.0841897-.390466-.2032165-.5530392-.3570804s-.2917608-.3382103-.3875629-.5530392-.1437031-.4557856-.1437031-.7228701c0-.2612783.0464495-.5007835.1393485-.7185155.0928989-.2177319.2162804-.4049814.3701443-.5617484s.329501-.2786969.5269113-.3657897.4035299-.1306392.6183588-.1306392c.2612783 0 .5094928.047901.7446433.1437031s.4485278.2249897.640132.3875629l.3309525-.5051381c-.2438598-.2090227-.5123958-.3657897-.8056082-.4703011-.2932124-.1045113-.5965856-.156767-.9101196-.156767-.3251464 0-.6285196.060965-.9101196.1828949s-.5254598.2903092-.7315794.5051381-.3686928.4659464-.4877196.7533526-.1785402.5994886-.1785402.9362474c0 .3309526.060965.640132.1828949.9275381.1219299.2874062.2903093.5370722.5051381.748998.2148289.2119258.4659464.3788536.7533526.5007835s.5965856.1828948.9275381.1828948zm3.4662928-.1045113v-6.0964949h-.6357773v6.0964949zm3.3530722 0-2.3079588-2.2905402 2.0205526-2.2121567h-.8360907l-2.003134 2.220866 2.2557031 2.2818309zm2.4560165.1045113c.4122392 0 .7722227-.0740288 1.0799505-.2220866.3077278-.1480577.5515876-.3207917.7315794-.518202l-.3570804-.4354639c-.1625732.156767-.3556289.2917608-.579167.4049814-.2235382.1132206-.5036866.1698309-.8404454.1698309-.2090227 0-.4107876-.0377402-.6052948-.1132206-.1945073-.0754804-.3672413-.1828948-.5182021-.3222433-.1509608-.1393484-.2743423-.3091794-.3701443-.5094928-.0958021-.2003134-.1524124-.4253031-.169831-.674969h3.6143505c.0174186-.3832083-.0174185-.7301279-.1045113-1.0407588s-.220635-.5748124-.4006268-.7925443c-.1799917-.217732-.4006268-.3861114-.6619051-.5051382-.2612784-.1190268-.560297-.1785402-.8970557-.1785402-.3251464 0-.6227134.060965-.8927011.1828949-.2699876.1219299-.5007835.2903092-.6923876.5051381s-.3411134.4659464-.4485278.7533526-.1611217.5994886-.1611217.9362474c0 .342565.0537073.6575505.1611217.9449567s.2612783.5356206.4615917.7446433.4398186.3730474.7185155.4920742.5893278.1785402.9318928.1785402zm1.3499381-2.7608412h-2.9437361c.0812866-.4354639.2583753-.7794804.531266-1.0320495s.6009402-.3788536.9841485-.3788536c.2148288 0 .4078845.0377402.579167.1132206s.3178887.1770887.4398185.3048248c.1219299.127736.217732.2772453.2874062.4485278.0696743.1712825.1103176.3527258.1219299.5443299zm2.3253773 2.6563299v-3.0482474c.1741856-.2961155.4035299-.5356206.688033-.7185155.2845031-.1828948.5777155-.2743423.8796372-.2743423.1974103 0 .3817567.0304825.5530391.0914475.1712825.0609649.3193402.1538639.4441732.2786969s.2235382.2816.2961155.470301.108866.4107876.108866.6662598v2.5344h.6357773v-2.5779464c0-.3657897-.0551588-.6793237-.1654763-.9406021-.1103175-.2612783-.2540206-.4746556-.4311093-.6401319-.1770886-.1654763-.377402-.2859547-.6009402-.3614351-.2235381-.0754804-.4514309-.1132206-.6836783-.1132206-.3832083 0-.7214186.0783835-1.014631.2351505-.2932123.156767-.5414268.3599835-.7446433.6096495v-.7141608h-.6009402v4.5026969zm9.196998 0c.4877196 0 .9188289-.0856412 1.2933278-.2569237.374499-.1712825.6894846-.3991753.9449567-.6836784.2554722-.2845031.4485279-.6096495.579167-.9754391.1306392-.3657897.1959588-.7431918.1959588-1.1322062 0-.3890145-.0653196-.7664165-.1959588-1.1322062-.1306391-.3657897-.3236948-.6909361-.579167-.9754392-.2554721-.2845031-.5704577-.5123959-.9449567-.6836783-.3744989-.1712825-.8056082-.2569238-1.2933278-.2569238h-2.003134v6.0964949zm-.0348371-1.0886598h-.7315794v-3.9191753h.7315794c.249666 0 .4833649.0508042.7010969.1524124.2177319.1016083.4093361.2395052.5748124.4136907.1654762.1741856.2961154.3803052.3919175.6183588.095802.2380536.1437031.4964289.1437031.7751258s-.0479011.5370721-.1437031.7751257c-.0958021.2380537-.2264413.4441732-.3919175.6183588-.1654763.1741856-.3570805.3120825-.5748124.4136907-.217732.1016083-.4514309.1524124-.7010969.1524124zm6.009402 1.1931711c.4122392 0 .7722227-.0740288 1.0799506-.2220866.3077278-.1480577.5515876-.3207917.7315793-.518202l-.3570804-.4354639c-.1625732.156767-.3556288.2917608-.579167.4049814-.2235381.1132206-.5036866.1698309-.8404454.1698309-.2090226 0-.4107876-.0377402-.6052948-.1132206s-.3672412-.1828948-.5182021-.3222433c-.1509608-.1393484-.2743422-.3091794-.3701443-.5094928-.095802-.2003134-.1524124-.4253031-.1698309-.674969h3.6143505c.0174186-.3832083-.0174186-.7301279-.1045113-1.0407588-.0870928-.3106309-.2206351-.5748124-.4006268-.7925443-.1799918-.217732-.4006268-.3861114-.6619052-.5051382-.2612783-.1190268-.5602969-.1785402-.8970557-.1785402-.3251464 0-.6227134.060965-.892701.1828949s-.5007835.2903092-.6923876.5051381c-.1916042.2148289-.3411134.4659464-.4485279.7533526-.1074144.2874062-.1611216.5994886-.1611216.9362474 0 .342565.0537072.6575505.1611216.9449567.1074145.2874062.2612784.5356206.4615918.7446433s.4398185.3730474.7185155.4920742c.2786969.1190268.5893278.1785402.9318927.1785402zm1.3499382-2.7608412h-2.9437361c.0812866-.4354639.2583753-.7794804.531266-1.0320495s.6009402-.3788536.9841484-.3788536c.2148289 0 .4078846.0377402.579167.1132206.1712825.0754804.3178887.1770887.4398186.3048248.1219299.127736.217732.2772453.2874062.4485278s.1103175.3527258.1219299.5443299zm3.1353402 2.7608412c.2322474 0 .454334-.0333855.6662598-.1001567.2119258-.0667711.3991752-.1625732.5617484-.2874062.1625732-.1248329.2903093-.2757938.3832083-.4528824.092899-.1770887.1393484-.3759505.1393484-.5965856 0-.2148289-.0435464-.3933691-.1306391-.5356206-.0870928-.1422516-.201765-.2612784-.3440165-.3570804-.1422516-.0958021-.3048248-.172734-.4877196-.2307959-.1828949-.0580619-.3701444-.1074144-.5617485-.1480577-.1625732-.0348371-.3149855-.0682227-.4572371-.1001567-.1422515-.0319341-.2670845-.0740289-.374499-.1262846-.1074144-.0522556-.1930556-.1175752-.2569237-.1959587-.063868-.0783835-.095802-.1785402-.095802-.3004701 0-.2148289.0870928-.3933691.2612783-.5356207.1741856-.1422515.4122392-.2133773.7141608-.2133773.2438598 0 .4761073.0377402.6967423.1132206.2206351.0754805.4267547.1828949.6183588.3222433l.2438598-.5225567c-.2380536-.1625732-.4877196-.2816-.748998-.3570804-.2612783-.0754804-.5370721-.1132206-.8273814-.1132206-.2322474 0-.4456248.031934-.640132.0958021-.1945072.063868-.3628866.1553154-.5051381.2743422-.1422516.1190268-.2525691.2598268-.3309526.4224s-.1175753.342565-.1175753.5399753c0 .2264412.0479011.4122392.1437031.5573938.0958021.1451547.217732.2627299.3657897.3527258.1480578.0899959.3120825.1596701.4920743.2090227.1799917.0493525.3541773.0914474.5225567.1262845.1451546.0290309.2888577.0624165.4311092.1001567.1422516.0377402.2670846.0856412.374499.1437031s.1945072.1291876.2612784.2133773c.0667711.0841897.1001567.1872495.1001567.3091794 0 .1335423-.0304825.2525691-.0914475.3570804-.0609649.1045114-.1408.1916041-.2395051.2612784-.0987052.0696742-.2162804.1233814-.3527258.1611216s-.2772454.0566103-.4224.0566103c-.2438598 0-.4790103-.0333855-.7054515-.1001567-.2264413-.0667711-.4557856-.1611216-.688033-.2830515l-.2090227.5399752c.5341691.2670846 1.0712412.4006268 1.6112165.4006268zm3.1266309-5.382334c.1277361 0 .2380536-.047901.3309526-.1437031.092899-.095802.1393484-.2104742.1393484-.3440165 0-.1277361-.0464494-.2380536-.1393484-.3309526-.092899-.0928989-.2032165-.1393484-.3309526-.1393484-.1335423 0-.2467629.0464495-.3396618.1393484-.092899.092899-.1393485.2032165-.1393485.3309526 0 .1335423.0464495.2482145.1393485.3440165.0928989.0958021.2061195.1437031.3396618.1437031zm.313534 5.2778227v-4.5026969h-.6357773v4.5026969zm3.3966186 2.2469938c.2670845 0 .5341691-.0406433.8012536-.1219299s.5065897-.2090227.7185155-.3832082c.2119257-.1741856.3832082-.3977237.5138474-.6706145.1306392-.2728907.1959587-.6038433.1959587-.9928577v-4.5810804h-.6009402v.6793237c-.2496659-.2961155-.5254598-.5051381-.8273814-.627068s-.6125526-.1828949-.9318928-.1828949c-.3425649 0-.6502928.0653196-.9231835.1959588s-.502235.3062763-.688033.5269113c-.1857979.2206351-.3280495.4732041-.4267546.7577072-.0987052.2845031-.1480577.5835217-.1480577.8970557s.0493525.6125526.1480577.8970557c.0987051.2845031.2409567.5356206.4267546.7533525.185798.217732.4151423.390466.688033.5182021s.5806186.1916041.9231835.1916041c.342565 0 .6604536-.0682226.953666-.204668s.5530392-.329501.7794804-.579167v.8186721c0 .2264413-.0435464.4325609-.1306392.6183588s-.2032165.3440165-.3483711.4746557-.3120825.2322474-.5007835.3048247-.3817567.108866-.579167.108866c-.3483712 0-.6575505-.0580619-.9275382-.1741856-.2699876-.1161237-.5094927-.2583752-.7185154-.4267546l-.3309526.5399753c.249666.1857979.5356206.3425649.8578639.470301s.6807753.1916041 1.0755959.1916041zm-.060965-2.7347134c-.2496659 0-.4732041-.047901-.6706144-.1437031-.1974103-.095802-.3657897-.2249897-.5051381-.3875629-.1393485-.1625732-.2453114-.3512742-.3178887-.5661031-.0725773-.2148288-.108866-.438367-.108866-.6706144s.0362887-.4557856.108866-.6706144c.0725773-.2148289.1785402-.4049815.3178887-.5704578.1393484-.1654763.3077278-.297567.5051381-.3962721.1974103-.0987052.4209485-.1480578.6706144-.1480578.1916042 0 .3715959.0275794.5399753.0827382.1683794.0551587.3222433.1291876.4615918.2220866.1393484.092899.2641814.1974103.3744989.313534s.2032165.2380536.2786969.3657897v1.5937979c-.0812866.1219299-.1756371.2424083-.2830515.3614351s-.2307959.2235381-.3701443.313534c-.1393485.0899959-.2932124.1625732-.4615918.217732-.1683794.0551587-.3483711.0827381-.5399753.0827381zm4.3459299.4877196v-3.0482474c.1741856-.2961155.4035299-.5356206.688033-.7185155.2845031-.1828948.5777155-.2743423.8796371-.2743423.1974104 0 .3817567.0304825.5530392.0914475.1712825.0609649.3193402.1538639.4441732.2786969s.2235382.2816.2961155.470301.108866.4107876.108866.6662598v2.5344h.6357773v-2.5779464c0-.3657897-.0551588-.6793237-.1654763-.9406021-.1103175-.2612783-.2540206-.4746556-.4311093-.6401319-.1770886-.1654763-.3774021-.2859547-.6009402-.3614351s-.4514309-.1132206-.6836783-.1132206c-.3832083 0-.7214186.0783835-1.014631.2351505-.2932123.156767-.5414268.3599835-.7446433.6096495v-.7141608h-.6009402v4.5026969z" fill="#000" fill-rule="nonzero"/></g></g></svg>