<svg height="800" viewBox="0 0 800 800" width="800" xmlns="http://www.w3.org/2000/svg" xmlns:xlink="http://www.w3.org/1999/xlink"><defs><rect id="a" height="240" rx="64" width="240"/><filter id="b" height="123.3%" width="123.3%" x="-11.7%" y="-11.7%"><feGaussianBlur in="SourceAlpha" result="shadowBlurInner1" stdDeviation="28"/><feOffset dx="0" dy="0" in="shadowBlurInner1" result="shadowOffsetInner1"/><feComposite in="shadowOffsetInner1" in2="SourceAlpha" k2="-1" k3="1" operator="arithmetic" result="shadowInnerInner1"/><feColorMatrix in="shadowInnerInner1" type="matrix" values="0 0 0 0 0   0 0 0 0 0   0 0 0 0 0  0 0 0 1 0"/></filter><filter id="c" height="121%" width="153.1%" x="-28.9%" y="-7%"><feOffset dx="0" dy="2" in="SourceAlpha" result="shadowOffsetOuter1"/><feGaussianBlur in="shadowOffsetOuter1" result="shadowBlurOuter1" stdDeviation="3"/><feColorMatrix in="shadowBlurOuter1" result="shadowMatrixOuter1" type="matrix" values="0 0 0 0 0   0 0 0 0 0   0 0 0 0 0  0 0 0 0.1 0"/><feMerge><feMergeNode in="shadowMatrixOuter1"/><feMergeNode in="SourceGraphic"/></feMerge></filter><linearGradient id="d"><stop offset="0" stop-color="#ffa27a"/><stop offset=".241324762" stop-color="#ffb392"/><stop offset="1" stop-color="#ffc1a4"/></linearGradient><linearGradient id="e" x1="50%" x2="28.296705%" xlink:href="#d" y1="62.673286%" y2="39.262344%"/><filter id="f" height="239.2%" width="164.5%" x="-32.3%" y="-69.6%"><feGaussianBlur in="SourceGraphic" stdDeviation="5.33471516"/></filter><linearGradient id="g" x1="50%" x2="28.296705%" xlink:href="#d" y1="60.067955%" y2="41.469754%"/><filter id="h" height="239.2%" width="157.5%" x="-28.7%" y="-69.6%"><feGaussianBlur in="SourceGraphic" stdDeviation="5.33471516"/></filter><linearGradient id="i" x1="50%" x2="28.296705%" xlink:href="#d" y1="67.43067%" y2="35.231569%"/><filter id="j" height="205.8%" width="157.5%" x="-28.7%" y="-52.9%"><feGaussianBlur in="SourceGraphic" stdDeviation="5.33471516"/></filter><linearGradient id="k" x1="50%" x2="50%" y1="100%" y2="0%"><stop offset="0" stop-color="#ffc6ac"/><stop offset="1" stop-color="#ffc0a3"/></linearGradient><linearGradient id="l" x1="50%" x2="50%" y1="0%" y2="100%"><stop offset="0" stop-color="#ffccb4"/><stop offset="1" stop-color="#ffd1bc"/></linearGradient><filter id="m" height="239.2%" width="164.5%" x="-32.3%" y="-69.6%"><feGaussianBlur in="SourceGraphic" stdDeviation="5.33471516"/></filter><linearGradient id="n" x1="50%" x2="50%" y1="100%" y2="0%"><stop offset="0" stop-color="#ffb798"/><stop offset="1" stop-color="#ffd9c3"/></linearGradient><linearGradient id="o" x1="50%" x2="50%" y1="100%" y2="0%"><stop offset="0" stop-color="#ffc6aa"/><stop offset="1" stop-color="#ffe0d1"/></linearGradient><linearGradient id="p" x1="50%" x2="28.296705%" xlink:href="#d" y1="86.781129%" y2="18.836565%"/><filter id="q" height="276.3%" width="239.2%" x="-69.6%" y="-88.2%"><feGaussianBlur in="SourceGraphic" stdDeviation="5.33471516"/></filter><linearGradient id="r" x1="0%" x2="99.316406%" y1="50%" y2="50%"><stop offset="0" stop-color="#ffd3be"/><stop offset=".366659628" stop-color="#ffba9c"/><stop offset=".710224085" stop-color="#ffbea2"/><stop offset="1" stop-color="#ffd8c3"/></linearGradient><linearGradient id="s" x1="91.559939%" x2="11.71875%" y1="43.332068%" y2="50%"><stop offset="0" stop-color="#ffe3d6" stop-opacity=".2"/><stop offset=".283699383" stop-color="#fed0bb" stop-opacity=".88652"/><stop offset="1" stop-color="#ffd1bc" stop-opacity=".6"/></linearGradient><linearGradient id="t" x1="50%" x2="28.296705%" xlink:href="#d" y1="53.944036%" y2="46.658349%"/><filter id="u" height="301.7%" width="152.2%" x="-26.1%" y="-100.9%"><feGaussianBlur in="SourceGraphic" stdDeviation="5.33471516"/></filter><linearGradient id="v" x1="50%" x2="50%" y1="100%" y2="0%"><stop offset="0" stop-color="#ffbda0" stop-opacity=".6"/><stop offset=".23505126" stop-color="#ffc1a5"/><stop offset="1" stop-color="#ffc8af"/></linearGradient><linearGradient id="w" x1="50%" x2="68.529184%" y1="0%" y2="123.072732%"><stop offset="0" stop-color="#ffcfb8"/><stop offset=".589518271" stop-color="#ffc4aa"/><stop offset="1" stop-color="#ffd0ba"/></linearGradient><linearGradient id="x" x1="50%" x2="42.186814%" xlink:href="#d" y1="109.013277%" y2="0%"/><filter id="y" height="276.3%" width="393.9%" x="-146.9%" y="-88.2%"><feGaussianBlur in="SourceGraphic" stdDeviation="5.33471516"/></filter><linearGradient id="z" x1="50%" x2="50%" y1="100%" y2="0%"><stop offset="0" stop-color="#ffbca0"/><stop offset=".172270904" stop-color="#ffc0a4"/><stop offset="1" stop-color="#ffceb8"/></linearGradient><linearGradient id="A" x1="50%" x2="42.614851%" xlink:href="#d" y1="109.013277%" y2="0%"/><filter id="B" height="246.9%" width="351.9%" x="-125.9%" y="-73.5%"><feGaussianBlur in="SourceGraphic" stdDeviation="5.33471516"/></filter><linearGradient id="C" x1="50%" x2="41.230693%" y1="109.013277%" y2="0%"><stop offset="0" stop-color="#ffbb9e"/><stop offset=".241324762" stop-color="#ffc1a6"/><stop offset="1" stop-color="#ffd0b9"/></linearGradient><linearGradient id="D" x1="50%" x2="45.056223%" xlink:href="#d" y1="109.013277%" y2="0%"/><filter id="E" height="220.2%" width="351.9%" x="-125.9%" y="-60.1%"><feGaussianBlur in="SourceGraphic" stdDeviation="5.33471516"/></filter><linearGradient id="F" x1="50%" x2="50%" y1="100%" y2="0%"><stop offset="0" stop-color="#ffceb8"/><stop offset=".205172847" stop-color="#ffba9c"/><stop offset=".565967354" stop-color="#ffc9b0"/><stop offset="1" stop-color="#ffd6c0"/></linearGradient><linearGradient id="G" x1="50%" x2="50%" y1="0%" y2="100%"><stop offset="0" stop-color="#ffe1d3"/><stop offset=".575392785" stop-color="#ffc7ae"/><stop offset=".729045634" stop-color="#ffbea0"/><stop offset="1" stop-color="#ffcdb6"/></linearGradient><linearGradient id="H" x1="50%" x2="50%" y1="109.013277%" y2="-13.078585%"><stop offset="0" stop-color="#ff9d73"/><stop offset=".386085304" stop-color="#ffa57d"/><stop offset="1" stop-color="#ffb28e"/></linearGradient><filter id="I" height="452.7%" width="276.3%" x="-88.2%" y="-176.3%"><feGaussianBlur in="SourceGraphic" stdDeviation="5.33471516"/></filter><linearGradient id="J" x1="50%" x2="50%" y1="100%" y2="0%"><stop offset="0" stop-color="#ffeae1"/><stop offset="1" stop-color="#fff1ea"/></linearGradient><rect id="K" height="26.624204" rx="9.681529" width="19.363057" x="72.240658" y="63.394734"/><filter id="L" height="126.3%" width="136.2%" x="-18.1%" y="-13.1%"><feGaussianBlur in="SourceAlpha" result="shadowBlurInner1" stdDeviation="2.5"/><feOffset dx="0" dy="-2" in="shadowBlurInner1" result="shadowOffsetInner1"/><feComposite in="shadowOffsetInner1" in2="SourceAlpha" k2="-1" k3="1" operator="arithmetic" result="shadowInnerInner1"/><feColorMatrix in="shadowInnerInner1" type="matrix" values="0 0 0 0 1   0 0 0 0 0.852455285   0 0 0 0 0.787195122  0 0 0 1 0"/></filter><radialGradient id="M" cx="50%" cy="0%" gradientTransform="matrix(0 1 -.823529 0 .5 -.5)" r="115.785692%"><stop offset="0" stop-color="#ff5a72"/><stop offset=".405299831" stop-color="#f5263e"/><stop offset="1" stop-color="#ff5e6b"/></radialGradient><mask id="N" fill="#fff"><use fill="#fff" fill-rule="evenodd" xlink:href="#a"/></mask></defs><g fill="none" fill-rule="evenodd"><path d="m0 0h800v800h-800z" fill="#fff" fill-opacity=".01"/><g transform="translate(280 280)"><use fill="#111" fill-rule="evenodd" xlink:href="#a"/><use fill="#000" filter="url(#b)" xlink:href="#a"/><g filter="url(#c)" mask="url(#N)"><g transform="translate(57 53)"><g fill-rule="evenodd"><path d="m43.4338066 228.566539-.051641-10.767488c0-2.77059 4.8995655-12.226143 17.7326002-12.226143s31.8852342 11.202734 31.8852342 13.973324l-.3375804 8.933375" fill="url(#e)" filter="url(#f)" opacity=".12" transform="matrix(-1 0 0 -1 136.382166 434.139446)"/><path d="m1.68851195 189.235328-.0579387-10.767487c0-2.77059 5.49707347-12.226143 19.89511235-12.226143 14.398039 0 35.7736775 11.202734 35.7736775 13.973324l-.3787487 8.933374" fill="url(#g)" filter="url(#h)" opacity=".12" transform="matrix(-.69465837 -.7193398 .7193398 -.69465837 -77.921332 322.401383)"/><path d="m61.1791087 179.452174-.0579387-14.167747c0-3.645513 5.4970734-16.08703 19.8951124-16.08703 14.3980389 0 35.7736776 14.74044 35.7736776 18.385953l-.378749 11.75444" fill="url(#i)" filter="url(#j)" opacity=".12" transform="matrix(-.7313537 -.68199836 .68199836 -.7313537 41.944313 345.171874)"/><path d="m86.4254452 155.846111h-36.3057325c-3.909965 0-7.4497739 1.584826-10.0120916 4.147144-2.5623176 2.562318-4.1471441 6.102126-4.1471441 10.012091v21.78344c0 8.92274 3.6166552 17.000766 9.4639956 22.848106 5.8473403 5.847341 13.9253658 9.463996 22.8481063 9.463996 8.9227406 0 17.0007661-3.616655 22.8481064-9.463996 5.8473403-5.84734 9.4639957-13.925366 9.4639957-22.848106v-21.78344c0-3.909965-1.5848266-7.449773-4.1471443-10.012091-2.5623176-2.562318-6.1021266-4.147144-10.0120915-4.147144z" fill="url(#k)" stroke="url(#l)" stroke-width=".726115"/><path d="m44.0389022 217.069723-.0516411-10.767487c0-2.77059 4.8995655-12.226143 17.7326002-12.226143s31.8852342 11.202734 31.8852342 13.973324l-.3375803 8.933374" fill="url(#e)" filter="url(#m)" opacity=".8" transform="matrix(-1 0 0 -1 137.592356 411.145816)"/><rect fill="url(#n)" height="53.248408" rx="12.707006" stroke="url(#o)" stroke-width=".726115" transform="matrix(.8660254 -.5 .5 .8660254 -37.571354 33.679888)" width="25.414013" x="31.354843" y="60.324841"/><path d="m39.3143533 108.102672-.0255509-12.3834084c0-3.1863838 5.1472995-5.7694582 11.4968153-5.7694582 6.3495157 0 11.4968153 2.5830744 11.4968153 5.7694582v11.5389164" fill="url(#p)" filter="url(#q)" opacity=".8" transform="matrix(.43837115 .89879405 -.89879405 .43837115 117.526862 9.970182)"/><path d="m63.9764416 107.718939h-20.5732484c-5.9150752 0-11.2701707 2.397558-15.1464975 6.273885-3.8763267 3.876326-6.2738847 9.231422-6.2738847 15.146497v32.675159c0 11.596221 4.7002972 22.094629 12.2996497 29.693981 7.5993524 7.599353 18.09776 12.29965 29.6939809 12.29965s22.0946285-4.700297 29.6939809-12.29965c7.5993525-7.599352 12.2996495-18.09776 12.2996495-29.693981v-12.101911c0-11.59622-4.700297-22.094628-12.2996495-29.69398-7.5993524-7.599353-18.09776-12.29965-29.6939809-12.29965z" fill="url(#r)" stroke="url(#s)" stroke-width=".726115" transform="matrix(.76604444 -.64278761 .64278761 .76604444 -85.15522 77.565006)"/><path d="m51.2853382 140.628877-.0638772-7.430044c0-1.911831 6.060505-8.436583 21.9342943-8.436583 15.8737894 0 39.4403587 7.730385 39.4403587 9.642215l-.417569 6.164426" fill="url(#t)" filter="url(#u)" opacity=".5" transform="matrix(.76604444 .64278761 -.64278761 .76604444 104.458081 -21.605089)"/><path d="m91.3400817 177.739311c.2039013-4.102638.5097534-10.256596.9175562-18.461872 0-6.683701 5.1472995-12.101911 11.4968151-12.101911 6.349516 0 11.496815 5.41821 11.496815 12.101911l-1.302971 27.176869" fill="url(#v)" stroke="url(#w)" stroke-linecap="round" stroke-width=".726115" transform="matrix(.76604444 .64278761 -.64278761 .76604444 131.39316 -27.369903)"/><path d="m91.9669945 167.624311-.0121031-12.383408c0-3.186384 2.4381945-5.769458 5.4458599-5.769458 3.0076657 0 5.4458597 2.583074 5.4458597 5.769458v11.538916" fill="url(#x)" filter="url(#y)" opacity=".8" transform="matrix(.76604444 .64278761 -.64278761 .76604444 124.700058 -25.514839)"/><path d="m77.5121182 164.136473.6530381-26.098517c0-7.352071 5.6891205-13.312102 12.7070064-13.312102 7.0178858 0 12.7070063 5.960031 12.7070063 13.312102v26.624204" fill="url(#z)" transform="matrix(.76604444 .64278761 -.64278761 .76604444 114.191171 -24.349651)"/><path d="m79.4310062 145.682146-.0141203-14.86009c0-3.82366 2.8445603-6.92335 6.3535032-6.92335s6.3535032 3.09969 6.3535032 6.92335v13.8467" fill="url(#A)" filter="url(#B)" opacity=".8" transform="matrix(.76604444 .64278761 -.64278761 .76604444 106.708075 -23.597174)"/><path d="m60.2607992 146.085473-.0295852-28.572733c0-7.352071 5.960031-13.312102 13.3121019-13.312102s13.3121019 5.960031 13.3121019 13.312102v26.624203" fill="url(#C)" transform="matrix(.76604444 .64278761 -.64278761 .76604444 97.646273 -17.994819)"/><path d="m61.018645 131.121019-.0141203-18.162332c0-4.673363 2.8445603-8.461872 6.3535032-8.461872s6.3535032 3.788509 6.3535032 8.461872v16.923744" fill="url(#D)" filter="url(#E)" opacity=".8" transform="matrix(.76604444 .64278761 -.64278761 .76604444 91.484897 -15.734855)"/><path d="m45.2999842 166.735152c-2.958692-3.526032-4.9268598-9.036536-4.8744594-17.137288 0-18.819531.7368794-47.266493 2.2106382-85.3408852 0-7.3520709 5.8096061-13.669985 12.4438235-13.6127772 6.6342173.0587816 11.9697421 6.9136993 11.9697421 14.2657702-.3568182 25.5100768-.6244319 44.6426342-.802841 57.3976732-.0163147 1.166391-.0407868 2.915977-.0734162 5.248759" fill="url(#F)" stroke="url(#G)" stroke-linecap="round" stroke-width=".726115" transform="matrix(.76604444 .64278761 -.64278761 .76604444 82.436475 -9.112998)"/><path d="m50.1329767 107.522293-.0201717-6.191704c0-1.5931919 4.0636575-2.8847291 9.0764331-2.8847291s9.0764331 1.2915372 9.0764331 2.8847291v5.769458" fill="url(#H)" filter="url(#I)" opacity=".6" transform="matrix(.76604444 .64278761 -.64278761 .76604444 80.044539 -13.952412)"/></g><g fill="none" transform="matrix(.76604444 .64278761 -.64278761 .76604444 68.472354 -34.712576)"><use fill="url(#J)" fill-rule="evenodd" xlink:href="#K"/><use fill="#000" filter="url(#L)" xlink:href="#K"/></g><path d="m89.104821 33.9913424c3.8090183-5.3308753 3.8378542-8.0946703 3.8378542-12.4176337 0-6.6591336-6.0707525-15.05141571-14.6078255-15.05141571-5.4880293 0-9.3386611 2.07886875-11.389148 3.56381841-.3528146.255506-.6523342.4934286-.8977297.7001521-1.1352141.8033379-.5239825.7994021-1.6299397.0170023-.2470345-.2089019-.5502992-.4505926-.9089169-.7106632-2.0482195-1.48537461-5.9020746-3.57030961-11.3981052-3.57030961-8.5370731 0-14.6078255 8.39228211-14.6078255 15.05141571s3.1738175 13.2275243 8.8825563 18.109575c5.7087389 4.8820507 9.5243647 7.8016953 13.6397367 10.3208769.641745.3928374 1.2076264.7447789 1.7060273 1.0589816 2.6977361 1.7007112 5.2495235 1.2259517 6.9553884.1058589.5998273-.3938544 1.2011095-.7962402 1.7334888-1.1648405 2.0464268-1.4168724 4.3995292-3.0669098 4.3995292-3.0669098s10.4758914-7.6150331 14.2849096-12.9459084z" fill="url(#M)" fill-rule="evenodd" transform="matrix(.96592583 .25881905 -.25881905 .96592583 9.818839 -15.880849)"/></g></g><rect height="234" rx="64" stroke="#232323" stroke-width="6" width="234" x="3" y="3"/></g></g></svg>