<svg height="800" viewBox="0 0 800 800" width="800" xmlns="http://www.w3.org/2000/svg"><g fill="none" fill-rule="evenodd"><path d="m0 0h800v800h-800z" fill="#fff" fill-opacity=".01"/><g transform="translate(200 318)"><path d="m39.5604396 139.194139h-39.5604396v-112.8205126h39.5604396" stroke="#000" stroke-width="14"/><path d="m400 139.194139h-39.56044v-112.8205126h39.56044" stroke="#000" stroke-width="14" transform="matrix(-1 0 0 1 760.43956 0)"/><g fill="#000"><path d="m84.043956 116.483516c4.3760684 0 8.1709402-.59829 11.3846154-1.794871 3.2136752-1.196582 5.8632476-2.786325 7.9487176-4.769231s3.641026-4.307692 4.666667-6.974359 1.538462-5.5042736 1.538462-8.5128206c0-3.3504273-.888889-6.5128205-2.666667-9.4871795-1.777778-2.9743589-4.410256-5.2136752-7.897436-6.7179487 1.982906-1.8461538 3.521368-4 4.615385-6.4615384 1.094017-2.4615385 1.641025-4.957265 1.641025-7.4871795 0-5.8803419-1.982906-10.6153846-5.9487177-14.2051282-3.9658119-3.5897436-9.982906-5.3846154-18.051282-5.3846154h-24.7179487v71.7948713zm-3.5897435-42.3589739h-9.3333334v-16.6153846h9.1282051c2.940171 0 5.4358975.6495727 7.4871795 1.948718 2.0512821 1.2991453 3.0769231 3.3846153 3.0769231 6.2564102 0 2.1880342-.8376068 4.1367522-2.5128205 5.8461539s-4.2905983 2.5641025-7.8461538 2.5641025zm3.5897435 29.5384619h-12.9230769v-17.2307696h12.8205128c1.3675214 0 2.7179488.1367522 4.0512821.4102564 1.3333333.2735043 2.5299145.7179488 3.5897436 1.3333334 1.059829.6153846 1.9145299 1.4529914 2.5641025 2.5128205.6495727 1.059829.974359 2.3418803.974359 3.8461538 0 1.5726496-.3076923 2.923077-.9230769 4.0512821s-1.4358974 2.0683764-2.4615385 2.8205124c-1.025641.752137-2.2051282 1.31624-3.5384615 1.692308s-2.7179487.564103-4.1538462.564103z" fill-rule="nonzero"/><path d="m155.897436 116.791209 40.43956-72.1025643h-15.589743l-31.619048 54.3589743-8.791209-54.3589743h-15.589743l11.868132 72.1025643z" fill-rule="nonzero"/><path d="m236.278388 116.791209 40.439561-72.1025643h-15.589744l-31.619047 54.3589743-8.791209-54.3589743h-15.589744l11.868132 72.1025643z" fill-rule="nonzero" transform="matrix(1 0 0 -1 0 161.479854)"/><path d="m307.985348 116.483516c5.74359 0 10.820513-1.008547 15.230769-3.025641 4.410257-2.017094 8.119658-4.700854 11.128205-8.051282 3.008547-3.350427 5.282052-7.1794868 6.820513-11.4871791 1.538462-4.3076923 2.307692-8.7521367 2.307692-13.3333333s-.76923-9.025641-2.307692-13.3333333c-1.538461-4.3076924-3.811966-8.1367522-6.820513-11.4871795-3.008547-3.3504274-6.717948-6.0341881-11.128205-8.0512821-4.410256-2.017094-9.487179-3.025641-15.230769-3.025641h-23.589744v71.7948713zm-.410256-12.820512h-8.615385v-46.1538465h8.615385c2.940171 0 5.692307.5982906 8.25641 1.7948718 2.564102 1.1965812 4.820513 2.8205128 6.769231 4.8717949 1.948718 2.051282 3.487179 4.4786325 4.615384 7.2820513s1.692308 5.8461538 1.692308 9.1282051-.564103 6.3247863-1.692308 9.1282051-2.666666 5.2307692-4.615384 7.2820513c-1.948718 2.051282-4.205129 3.675214-6.769231 4.871795-2.564103 1.196581-5.316239 1.794872-8.25641 1.794872z" fill-rule="nonzero" transform="matrix(-1 0 0 1 627.868132 0)"/><path d="m134.065934 0h131.868132v3h-131.868132z"/><path d="m134.065934 162.637363h131.868132v3h-131.868132z"/></g></g></g></svg>