<svg height="800" viewBox="0 0 800 800" width="800" xmlns="http://www.w3.org/2000/svg" xmlns:xlink="http://www.w3.org/1999/xlink"><linearGradient id="a" x1="50%" x2="50%" y1="0%" y2="100%"><stop offset="0" stop-color="#fb9952"/><stop offset="1" stop-color="#ff3040"/></linearGradient><g fill="none" fill-rule="evenodd"><path d="m0 0h800v800h-800z" fill="#fff" fill-opacity=".01"/><g transform="translate(280 280)"><rect fill="#fff" height="242" rx="64" stroke="#eaeef0" stroke-width="2" width="242" x="-1" y="-1"/><rect fill="url(#a)" height="178.125" rx="89.0625" width="178.125" x="30.9375" y="30.9375"/><path d="m120.216962 3.6211236c-1.51465-2.9648472-5.156256-4.1250048-8.088876-2.6103546l-57.3955748 29.5195656c-4.0927782-3.867192-10.1836056-6.0908274-17.3701374-6.0908274-5.5429752 0-11.3759898 1.289064-16.8545118 3.7705122-9.2168076 4.1572314-16.4033394 11.1826302-19.174827 18.7881078-1.8369162 5.0595762-1.7080098 10.0224726.4189458 14.4052902 3.3515664 6.9609456 11.2470834 11.118177 21.0761964 11.118177 5.5429752 0 11.3759898-1.289064 16.8545118-3.7705122 9.2168076-4.1572314 16.4033394-11.1826302 19.174827-18.7881078 1.0634778-2.9326206 1.3857438-5.8330146 1.127931-8.6045022l57.653387-29.648472c2.932621-1.5146502 4.092779-5.1240294 2.578128-8.0888766zm-107.6514926 81.0205951v.0000008c0 3.1066028 2.5183972 5.625 5.625 5.625s5.625-2.5183972 5.625-5.625c0-3.1066028-2.5183972-5.625-5.625-5.625s-5.625 2.5183972-5.625 5.625zm30.9726912 6.4628975v.0000008c0 3.1066028 2.5183971 5.625 5.6249999 5.625s5.625-2.5183972 5.625-5.625v-.0000001c0-3.1066028-2.5183972-5.6249999-5.625-5.6249999s-5.6249999 2.5183971-5.6249999 5.6249999v.0000003zm-22.8339984 21.5976918c0 4.142137 3.3578629 7.5 7.5 7.5s7.5-3.357863 7.5-7.5c0-4.142137-3.3578629-7.5-7.5-7.5s-7.5 3.357863-7.5 7.5z" fill="#fff" fill-rule="nonzero" transform="translate(89.0625 60.9375)"/></g></g></svg>