<svg height="800" viewBox="0 0 800 800" width="800" xmlns="http://www.w3.org/2000/svg" xmlns:xlink="http://www.w3.org/1999/xlink"><defs><rect id="a" height="240" rx="64" width="240"/><linearGradient id="b" x1="6.13302%" x2="86.739968%" y1="23.060714%" y2="83.198402%"><stop offset="0" stop-color="#0073ee"/><stop offset="1" stop-color="#0074ec"/></linearGradient><linearGradient id="c"><stop offset="0" stop-color="#0073ed"/><stop offset="1" stop-color="#007fe6"/></linearGradient><linearGradient id="d" x1="3.554021%" x2="92.472015%" xlink:href="#c" y1="41.391877%" y2="67.017968%"/><linearGradient id="e" x1="3.554021%" x2="92.472015%" xlink:href="#c" y1="41.392707%" y2="67.016327%"/><linearGradient id="f" x1="14.647791%" x2="96.581097%" y1="30.037869%" y2="62.496832%"><stop offset="0" stop-color="#00b3fe"/><stop offset="1" stop-color="#00b5f6"/></linearGradient><linearGradient id="g" x1="0%" x2="93.00976%" y1="32.721914%" y2="76.964309%"><stop offset="0" stop-color="#0073ee"/><stop offset="1" stop-color="#0081e5"/></linearGradient><mask id="h" fill="#fff"><use fill="#fff" fill-rule="evenodd" xlink:href="#a"/></mask></defs><g fill="none" fill-rule="evenodd"><path d="m0 0h800v800h-800z" fill="#fff" fill-opacity=".01"/><g transform="translate(280 280)"><use fill="#121212" xlink:href="#a"/><circle cx="185" cy="55" fill="#3a3300" mask="url(#h)" r="10.25" stroke="#a39000" stroke-width=".5"/><circle cx="55" cy="185" fill="#003d00" mask="url(#h)" r="10.25" stroke="#00931c" stroke-width=".5"/><circle cx="95" cy="95" r="45" style="stroke:#0065ff;stroke-width:10;fill-opacity:.3;fill:#0065ff;opacity:.9;mask:url(#h)"/><path d="m95 44.75c13.876154 0 26.438654 5.6244228 35.532116 14.7178842 9.093461 9.0934615 14.717884 21.6559615 14.717884 35.5321158 0 13.876154-5.624423 26.438654-14.717884 35.532116-9.093462 9.093461-21.655962 14.717884-35.532116 14.717884-13.8761543 0-26.4386543-5.624423-35.5321158-14.717884-9.0934614-9.093462-14.7178842-21.655962-14.7178842-35.532116 0-13.8761543 5.6244228-26.4386543 14.7178842-35.5321158 9.0934615-9.0934614 21.6559615-14.7178842 35.5321158-14.7178842zm0 10.5c-10.9766594 0-20.9141594 4.4491703-28.1074946 11.6425054-7.1933351 7.1933352-11.6425054 17.1308352-11.6425054 28.1074946 0 10.976659 4.4491703 20.914159 11.6425054 28.107495 7.1933352 7.193335 17.1308352 11.642505 28.1074946 11.642505 10.976659 0 20.914159-4.44917 28.107495-11.642505 7.193335-7.193336 11.642505-17.130836 11.642505-28.107495 0-10.9766594-4.44917-20.9141594-11.642505-28.1074946-7.193336-7.1933351-17.130836-11.6425054-28.107495-11.6425054z" fill="url(#b)" fill-rule="nonzero" mask="url(#h)" stroke="#00b3fe" stroke-width=".5"/><path d="m165.041163 104.698081c-6.035019-3.006871-12.840589-4.698081-20.041163-4.698081-8.580067 0-16.599283 2.40129-23.422263 6.568486" mask="url(#h)" stroke="#00cbe6" stroke-width="10"/><circle cx="145" cy="145" fill="#00bdd5" fill-opacity=".2" mask="url(#h)" r="45" stroke="#00c8e2" stroke-width="10"/><path d="m145 94.75c13.876154 0 26.438654 5.624423 35.532116 14.717884 9.093461 9.093462 14.717884 21.655962 14.717884 35.532116s-5.624423 26.438654-14.717884 35.532116c-9.093462 9.093461-21.655962 14.717884-35.532116 14.717884s-26.438654-5.624423-35.532116-14.717884c-9.093461-9.093462-14.717884-21.655962-14.717884-35.532116s5.624423-26.438654 14.717884-35.532116c9.093462-9.093461 21.655962-14.717884 35.532116-14.717884zm0 10.5c-10.976659 0-20.914159 4.44917-28.107495 11.642505-7.193335 7.193336-11.642505 17.130836-11.642505 28.107495s4.44917 20.914159 11.642505 28.107495c7.193336 7.193335 17.130836 11.642505 28.107495 11.642505s20.914159-4.44917 28.107495-11.642505c7.193335-7.193336 11.642505-17.130836 11.642505-28.107495s-4.44917-20.914159-11.642505-28.107495c-7.193336-7.193335-17.130836-11.642505-28.107495-11.642505z" fill="#00c8e2" fill-rule="nonzero" mask="url(#h)" stroke="#00fff6" stroke-width=".5"/><path d="m50 95c0 24.852814 20.1471863 45 45 45 8.673555 0 16.773969-2.453904 23.644863-6.70533" mask="url(#h)" stroke="url(#d)" stroke-width="10"/><path d="m55.2507689 94.75h-10.5028025l.0087404 1.0788667c.2220866 13.6981653 5.9236473 26.0623043 15.0080895 34.9977153 9.0690352 8.920258 21.5094526 14.423418 35.2352037 14.423418 9.539643 0 18.699072-2.667577 26.619561-7.622933l-5.523503-8.926745-.751085.456613c-6.096233 3.640754-13.071073 5.593065-20.344973 5.593065-10.9766594 0-20.9141594-4.44917-28.1074946-11.642505-7.2479069-7.247907-11.7098542-17.281774-11.6417365-28.357495z" fill="url(#e)" fill-rule="nonzero" mask="url(#h)" stroke="url(#f)" stroke-width=".5"/><path d="m115.89067 134.86732c3.582803-1.881273 6.880881-4.231357 9.81271-6.968727 1.160778-1.083786 2.264144-2.228282 3.30504-3.428428m-75.1966668-47.6235524c-.5776511 1.3087244-1.0947568 2.6501684-1.5477672 4.0207822-1.4689775 4.4444912-2.263986 9.1957061-2.263986 14.1326052 0 5.109051.8514198 10.019242 2.4201112 14.596426" mask="url(#h)" stroke="url(#g)" stroke-width="10"/></g></g></svg>