<svg height="800" viewBox="0 0 800 800" width="800" xmlns="http://www.w3.org/2000/svg"><g fill="none" fill-rule="evenodd"><path d="m0 0h800v800h-800z" fill="#fff" fill-opacity=".01"/><g transform="matrix(1 0 0 -1 230 527)"><circle cx="154.261484" cy="150.657244" fill="#f7f9fa" r="54.063604"/><path d="m119.830607.50226519.781908.0167364c191.11251.12296343 187.640773 68.91511221 174.898969 92.52226901-12.741804 23.6071564-29.079083 48.3968124-47.049812 69.9867714-30.291683 36.392305-53.036584 63.259009-95.401601 60.915421-21.137564 0-42.308482-7.291462-56.3827745-20.519138l-94.64621505 3.832767c-.66297903.026845-1.22219208-.488843-1.24903729-1.151822-.01799265-.444353.21094657-.862297.59508683-1.086372l29.97692541-17.486094-2.78471-.007907c-.6635198-.001829-1.1999255-.541202-1.1980957-1.204722.0009773-.354362.1583449-.690217.4300157-.917744l61.557424-51.555625c7.2911649-13.272105 17.8668186-25.12272 28.1846646-31.711888 5.619041-3.5884239-22.3930713-99.23570414 1.538342-101.58992373zm33.229464 133.33519081c-13.270447 0-24.028269 10.757822-24.028269 24.028268s10.757822 24.028269 24.028269 24.028269c13.270446 0 24.028268-10.757823 24.028268-24.028269s-10.757822-24.028268-24.028268-24.028268z" fill="#000"/><path d="m332.893873 170.981618c-.318223-1.734498-1.233331-2.780809-2.674797-3.252804-3.096229-1.014954-6.302547 1.386279-6.326628 1.394531-26.238821 18.318682-43.858085 23.599744-60.885624 28.115052-23.2544 6.16564-84.6337 12.466606-95.644235 14.805126-31.275353 6.642586-55.694279 25.606548-65.84475 53.292514-.309349.843603-.600671 1.694588-.875952 2.552254 82.769955-42.647565 129.136182-4.037383 155.376145 21.591383 3.422642-9.503069 6.972364-19.81016 8.665916-23.742606.854903-1.782358 1.551555-2.084369 3.158154-2.569566 5.251548-1.328518 8.801891-2.556364 10.370647-3.013506 5.867354-1.716345 30.953689-12.025968 45.332233-38.055001 2.991301-5.41969 6.699895-14.541073 8.500869-23.233371.163412-.787208-.710413-1.179987-1.314178-.602371-6.856427 6.568321-16.079749 12.555724-26.061647 14.521269-.839422.165034-.968432-.331716-.158252-.759152 16.005784-8.471153 30.267359-30.744031 28.382099-41.043752z" fill="#ff2d4d" transform="matrix(.99254615 -.12186934 -.12186934 -.99254615 29.460989 481.682915)"/><circle cx="94.190813" cy="90.586572" fill="#ff2d4d" r="54.063604"/><path d="m64.155477 145.85159h177.809187v24.028269h-177.809187z" fill="#ffdf19" transform="matrix(.70710678 .70710678 -.70710678 .70710678 156.458181 -61.992014)"/><path d="m64.155477 145.85159h177.809187v24.028269h-177.809187z" fill="#5c2fff"/></g></g></svg>