<svg height="400" viewBox="0 0 1280 400" width="1280" xmlns="http://www.w3.org/2000/svg"><g fill="none" fill-rule="evenodd"><path d="m0 0h1280v400h-1280z" fill="#000"/><path d="m329.670922 220.047228c2.813281 0 5.252923-.383299 7.318926-1.149897 2.066004-.766599 3.769357-1.785079 5.110062-3.055442 1.340704-1.270363 2.340737-2.759753 3.0001-4.468172s.989044-3.526352.989044-5.453799c0-2.146475-.571448-4.172485-1.714343-6.078029s-2.83526-3.340178-5.077093-4.303901c1.274768-1.182752 2.263812-2.562629 2.967132-4.139631s1.054981-3.175907 1.054981-4.796714c0-3.767283-1.274768-6.800822-3.824304-9.100616-2.549536-2.299795-6.417798-3.449692-11.604785-3.449692h-15.890642v45.995893zm-2.30777-27.137577h-6.000201v-10.644764h5.868329c1.890173 0 3.494622.416153 4.813348 1.24846 1.318725.832307 1.978088 2.168378 1.978088 4.008214 0 1.401779-.53848 2.650239-1.615439 3.745379-1.076959 1.095141-2.758334 1.642711-5.044125 1.642711zm2.30777 18.924025h-8.307971v-11.039015h8.242034c.879151 0 1.747312.087611 2.604483.262834.857172.175222 1.626428.459959 2.30777.854209.681341.394251 1.23081.93087 1.648407 1.609857.417596.678987.626394 1.500342.626394 2.464065 0 1.007529-.197808 1.87269-.593426 2.595483-.395618.722792-.923108 1.32512-1.582471 1.806981-.659362.481862-1.41763.843258-2.274801 1.084189-.857172.240931-1.747311.361397-2.670419.361397zm33.363755 8.870636c.659363 0 1.362683-.065708 2.109961-.197125.747277-.131417 1.450598-.372348 2.10996-.722793l-.725299-3.811088c-.35166.131417-.769256.251882-1.252789.361396-.483532.109514-1.05498.164271-1.714343.164271-1.40664 0-2.516568-.481861-3.329782-1.445585-.813214-.963723-1.219821-2.321697-1.219821-4.073922v-36.928131h-4.813348v36.796714c0 1.927447.263745 3.526352.791235 4.796715.527491 1.270363 1.208832 2.277892 2.044025 3.022587.835193.744696 1.780279 1.270363 2.83526 1.577002 1.05498.306639 2.10996.459959 3.164941.459959zm12.989446-40.476386c.967065 0 1.802258-.361396 2.505578-1.084189.703321-.722792 1.054981-1.587953 1.054981-2.595482 0-.963724-.35166-1.79603-1.054981-2.49692-.70332-.70089-1.538513-1.051335-2.505578-1.051335-1.011023 0-1.868194.350445-2.571515 1.051335-.70332.70089-1.05498 1.533196-1.05498 2.49692 0 1.007529.35166 1.87269 1.05498 2.595482.703321.722793 1.560492 1.084189 2.571515 1.084189zm2.373706 39.819302v-33.971253h-4.813348v33.971253zm15.429088 0v-22.997947c1.318726-2.234086 3.055048-4.041067 5.208966-5.420944s4.373773-2.069815 6.659564-2.069815c1.494555 0 2.890206.229979 4.186953.689938s2.417664 1.160849 3.36275 2.102669c.945087.941821 1.692365 2.124573 2.241834 3.548255s.824203 3.099247.824203 5.026694v19.12115h4.813348v-19.449692c0-2.759754-.417596-5.125257-1.252789-7.096509-.835193-1.971253-1.923141-3.581109-3.263846-4.829569-1.340704-1.24846-2.857238-2.157427-4.549603-2.726899-1.692364-.569473-3.417697-.85421-5.175997-.85421-2.901196 0-5.461722.591376-7.681576 1.774127-2.219855 1.182752-4.099039 2.715948-5.637552 4.59959v-5.388091h-4.549603v33.971253zm51.759976.788501c2.461621 0 4.857306-.525667 7.187054-1.577002 2.329749-1.051335 4.373773-2.540726 6.132074-4.468173v5.256674h4.549603v-45.995893h-4.681476v17.01848c-1.934131-2.146475-4.022113-3.679671-6.263946-4.599589s-4.549603-1.379877-6.923309-1.379877c-2.593493 0-4.923242.492813-6.989245 1.47844-2.066003.985626-3.802325 2.310746-5.208966 3.975359-1.40664 1.664613-2.483599 3.570157-3.230877 5.716632s-1.120917 4.402464-1.120917 6.767967c0 2.321698.373639 4.555784 1.120917 6.702259s1.824237 4.041068 3.230877 5.683778c1.406641 1.642711 3.142963 2.956879 5.208966 3.942506 2.066003.985626 4.395752 1.478439 6.989245 1.478439zm.52749-4.468173c-1.890173 0-3.582537-.372347-5.077093-1.117043-1.494555-.744695-2.769323-1.730321-3.824304-2.956879-1.05498-1.226557-1.857205-2.639288-2.406674-4.238193-.549469-1.598904-.824203-3.274469-.824203-5.026694 0-1.752224.274734-3.43874.824203-5.059548.549469-1.620807 1.351694-3.055441 2.406674-4.303901 1.054981-1.24846 2.329749-2.245038 3.824304-2.989733 1.494556-.744696 3.18692-1.117043 5.077093-1.117043 1.450598 0 2.813281.208076 4.088049.62423 1.274768.416153 2.439643.974674 3.494623 1.675564s2.000067 1.489391 2.83526 2.365503c.835193.876113 1.538513 1.79603 2.109961 2.759754v12.024641c-.571448.963723-1.274768 1.883641-2.109961 2.759753s-1.78028 1.653662-2.83526 2.332649-2.219855 1.226557-3.494623 1.64271c-1.274768.416154-2.637451.62423-4.088049.62423zm65.342849 4.468173c1.890173 0 3.769357-.208077 5.637551-.62423 1.868195-.416153 3.637485-.974675 5.307871-1.675565 1.670385-.70089 3.197909-1.533196 4.582571-2.49692 1.384661-.963723 2.538546-1.971252 3.461654-3.022587l-5.736456-6.702259c-1.362683 1.533197-3.044058 2.847365-5.044125 3.942506-2.000067 1.09514-4.494656 1.64271-7.483767 1.64271-2.197876 0-4.175964-.405202-5.934265-1.215606s-3.263845-1.905544-4.516635-3.285421c-1.252789-1.379877-2.219854-2.96783-2.901196-4.76386-.681341-1.79603-1.022012-3.679672-1.022012-5.650924 0-1.971253.329681-3.843943.989044-5.61807s1.59346-3.340178 2.802292-4.698152c1.208831-1.357974 2.670419-2.442163 4.384762-3.252567 1.714343-.810403 3.648474-1.215605 5.802392-1.215605 1.846216 0 3.846283.361396 6.000201 1.084189 2.153919.722792 4.241901 1.960301 6.263946 3.712525l5.472711-6.833675c-2.109961-2.058864-4.626528-3.723477-7.549703-4.99384s-6.165042-1.905544-9.725601-1.905544c-3.780346 0-7.154086.689938-10.121218 2.069815s-5.472711 3.186858-7.516735 5.420944c-2.044025 2.234087-3.604517 4.774812-4.681476 7.622177s-1.615439 5.716632-1.615439 8.607803c0 3.022587.516501 5.968515 1.549503 8.837782 1.033001 2.869268 2.538546 5.420945 4.516635 7.655031 1.978088 2.234086 4.395751 4.019165 7.25299 5.355236 2.857238 1.336071 6.132073 2.004107 9.824505 2.004107zm29.935069-.788501v-22.997947c1.318725-2.234086 3.055047-4.041067 5.208965-5.420944 2.153919-1.379877 4.373773-2.069815 6.659564-2.069815 1.494556 0 2.890207.229979 4.186954.689938 1.296746.459959 2.417663 1.160849 3.36275 2.102669.945086.941821 1.692364 2.124573 2.241833 3.548255s.824204 3.099247.824204 5.026694v19.12115h4.813348v-19.449692c0-2.759754-.417597-5.125257-1.25279-7.096509-.835192-1.971253-1.923141-3.581109-3.263845-4.829569-1.340705-1.24846-2.857239-2.157427-4.549603-2.726899-1.692365-.569473-3.417697-.85421-5.175998-.85421-2.857238 0-5.362817.558522-7.516735 1.675565s-4.000134 2.573579-5.538647 4.36961v-17.084189h-4.813348v45.995893zm39.759574-39.819302c.967065 0 1.802258-.361396 2.505578-1.084189.70332-.722792 1.05498-1.587953 1.05498-2.595482 0-.963724-.35166-1.79603-1.05498-2.49692s-1.538513-1.051335-2.505578-1.051335c-1.011023 0-1.868195.350445-2.571515 1.051335s-1.054981 1.533196-1.054981 2.49692c0 1.007529.351661 1.87269 1.054981 2.595482.70332.722793 1.560492 1.084189 2.571515 1.084189zm2.373705 39.819302v-33.971253h-4.813348v33.971253zm26.110765.788501c3.208899 0 6.000201-.635181 8.373907-1.905544s4.241901-2.759754 5.604584-4.468173l-3.099005-3.154004c-1.011023 1.182752-2.395685 2.310746-4.153986 3.383984-1.7583 1.073237-3.978155 1.609856-6.659563 1.609856-1.670386 0-3.285825-.317591-4.846317-.952772-1.560491-.635181-2.956143-1.533196-4.186953-2.694045-1.230811-1.160849-2.208865-2.551677-2.934164-4.172485-.725299-1.620807-1.087949-3.43874-1.087949-5.453799 0-1.971252.35166-3.778234 1.054981-5.420944.70332-1.642711 1.637417-3.055442 2.802291-4.238193 1.164874-1.182752 2.494589-2.10267 3.989145-2.759754 1.494555-.657084 3.055047-.985626 4.681475-.985626 1.978089 0 3.857273.361396 5.637552 1.084189 1.780279.722792 3.395718 1.697467 4.846316 2.924025l2.505579-3.811089c-1.846216-1.577002-3.879251-2.759753-6.099106-3.548254-2.219854-.788501-4.516635-1.182752-6.890341-1.182752-2.46162 0-4.758401.459959-6.89034 1.379877-2.13194.919918-3.978156 2.190281-5.538647 3.811088-1.560492 1.620808-2.791303 3.515401-3.692432 5.683778-.901129 2.168378-1.351693 4.52293-1.351693 7.063655 0 2.49692.461553 4.829569 1.384661 6.997947s2.197876 4.052019 3.824304 5.650924 3.527591 2.858316 5.703488 3.778234 4.516635 1.379877 7.022213 1.379877zm26.242638-.788501v-45.995893h-4.813348v45.995893zm25.385466 0-17.473113-17.281314 15.297216-16.689939h-6.329883l-15.165343 16.755647 17.077495 17.215606zm18.594029.788501c3.120984 0 5.84635-.558522 8.176098-1.675565 2.329749-1.117043 4.175964-2.42026 5.538647-3.909651l-2.703387-3.285421c-1.23081 1.182752-2.692398 2.201232-4.384762 3.055442-1.692365.854209-3.813315 1.281314-6.362851 1.281314-1.58247 0-3.109994-.284736-4.582571-.854209s-2.780313-1.379877-3.923208-2.431212c-1.142896-1.051335-2.076993-2.332649-2.802292-3.843942-.725299-1.511294-1.153885-3.208762-1.285757-5.092403h27.363554c.131872-2.89117-.131873-5.508556-.791235-7.852156-.659363-2.3436-1.670386-4.336756-3.033069-5.979466-1.362683-1.642711-3.033069-2.913073-5.011157-3.811088s-4.2419-1.347023-6.791436-1.347023c-2.461621 0-4.714444.459959-6.758468 1.379877-2.044025.919918-3.791336 2.190281-5.241934 3.811088-1.450598 1.620808-2.582504 3.515401-3.395718 5.683778-.813215 2.168378-1.219822 4.52293-1.219822 7.063655 0 2.584532.406607 4.960986 1.219822 7.129364.813214 2.168378 1.978088 4.041068 3.494622 5.61807s3.329782 2.81451 5.439743 3.712525 4.461688 1.347023 7.055181 1.347023zm10.220123-20.829569h-22.286461c.615405-3.285421 1.956109-5.880903 4.022113-7.786447 2.066003-1.905545 4.549603-2.858317 7.450799-2.858317 1.626428 0 3.088015.284737 4.384762.85421s2.406674 1.336071 3.329782 2.299794c.923108.963724 1.648407 2.091718 2.175897 3.383984s.835193 2.661191.923108 4.106776zm17.604985 20.041068v-22.997947c1.318726-2.234086 3.055048-4.041067 5.208966-5.420944s4.373773-2.069815 6.659564-2.069815c1.494555 0 2.890207.229979 4.186953.689938 1.296747.459959 2.417664 1.160849 3.36275 2.102669.945087.941821 1.692365 2.124573 2.241834 3.548255s.824203 3.099247.824203 5.026694v19.12115h4.813348v-19.449692c0-2.759754-.417596-5.125257-1.252789-7.096509-.835193-1.971253-1.923141-3.581109-3.263846-4.829569-1.340704-1.24846-2.857238-2.157427-4.549603-2.726899-1.692364-.569473-3.417697-.85421-5.175997-.85421-2.901196 0-5.461722.591376-7.681576 1.774127-2.219855 1.182752-4.099039 2.715948-5.637552 4.59959v-5.388091h-4.549603v33.971253zm69.628707 0c3.692431 0 6.956277-.646133 9.791537-1.938398 2.835259-1.292266 5.219955-3.011636 7.154085-5.158111 1.934131-2.146475 3.395719-4.59959 4.384763-7.359343.989044-2.759754 1.483566-5.607119 1.483566-8.542095s-.494522-5.782341-1.483566-8.542094c-.989044-2.759754-2.450632-5.212868-4.384763-7.359343-1.93413-2.146475-4.318826-3.865845-7.154085-5.158111-2.83526-1.292266-6.099106-1.938398-9.791537-1.938398h-15.165344v45.995893zm-.263745-8.213552h-5.538648v-29.568789h5.538648c1.890173 0 3.659463.383299 5.30787 1.149897 1.648407.766599 3.099005 1.806982 4.351794 3.12115 1.252789 1.314169 2.241833 2.869268 2.967132 4.665298s1.087949 3.74538 1.087949 5.848049c0 2.10267-.36265 4.052019-1.087949 5.84805-.725299 1.79603-1.714343 3.351129-2.967132 4.665297-1.252789 1.314169-2.703387 2.354552-4.351794 3.12115s-3.417697 1.149898-5.30787 1.149898zm45.496029 9.002053c3.120984 0 5.84635-.558522 8.176098-1.675565 2.329749-1.117043 4.175965-2.42026 5.538648-3.909651l-2.703388-3.285421c-1.23081 1.182752-2.692398 2.201232-4.384762 3.055442-1.692364.854209-3.813315 1.281314-6.362851 1.281314-1.58247 0-3.109994-.284736-4.582571-.854209-1.472576-.569473-2.780313-1.379877-3.923208-2.431212s-2.076993-2.332649-2.802292-3.843942c-.725299-1.511294-1.153885-3.208762-1.285757-5.092403h27.363554c.131873-2.89117-.131873-5.508556-.791235-7.852156-.659363-2.3436-1.670386-4.336756-3.033069-5.979466-1.362683-1.642711-3.033069-2.913073-5.011157-3.811088s-4.2419-1.347023-6.791436-1.347023c-2.461621 0-4.714444.459959-6.758468 1.379877-2.044025.919918-3.791336 2.190281-5.241934 3.811088-1.450598 1.620808-2.582504 3.515401-3.395718 5.683778-.813214 2.168378-1.219821 4.52293-1.219821 7.063655 0 2.584532.406607 4.960986 1.219821 7.129364s1.978088 4.041068 3.494622 5.61807c1.516535 1.577002 3.329782 2.81451 5.439743 3.712525s4.461688 1.347023 7.055181 1.347023zm10.220123-20.829569h-22.286461c.615405-3.285421 1.95611-5.880903 4.022113-7.786447 2.066003-1.905545 4.549603-2.858317 7.450799-2.858317 1.626428 0 3.088015.284737 4.384762.85421s2.406674 1.336071 3.329782 2.299794c.923108.963724 1.648407 2.091718 2.175897 3.383984s.835193 2.661191.923108 4.106776zm23.737059 20.829569c1.758301 0 3.439676-.251882 5.044125-.755647 1.604449-.503764 3.022079-1.226557 4.25289-2.168378 1.23081-.94182 2.197876-2.080766 2.901196-3.416837.70332-1.336072 1.05498-2.836414 1.05498-4.501027 0-1.620808-.329681-2.96783-.989044-4.041068-.659363-1.073237-1.527524-1.971252-2.604483-2.694045s-2.307769-1.303217-3.692431-1.741273-2.802292-.810404-4.25289-1.117043c-1.23081-.262834-2.384695-.514716-3.461654-.755647s-2.022046-.558522-2.83526-.952772c-.813214-.394251-1.461588-.887064-1.94512-1.47844-.483533-.591375-.725299-1.347022-.725299-2.26694 0-1.620808.659362-2.96783 1.978088-4.041068 1.318725-1.073237 3.120984-1.609856 5.406775-1.609856 1.846215 0 3.604516.284736 5.274902.854209 1.670385.569473 3.230877 1.379877 4.681475 2.431212l1.846216-3.942505c-1.802258-1.226557-3.692432-2.124573-5.67052-2.694045-1.978088-.569473-4.06607-.85421-6.263946-.85421-1.758301 0-3.373739.240931-4.846316.722793-1.472577.481861-2.747345 1.1718-3.824304 2.069815s-1.912152 1.960301-2.505579 3.186858c-.593426 1.226557-.890139 2.584531-.890139 4.073922 0 1.708419.362649 3.110199 1.087948 4.205339s1.648407 1.982204 2.769324 2.661191c1.120916.678987 2.362716 1.204654 3.725399 1.577002s2.681409.689938 3.956177.952772c1.098938.219028 2.186886.47091 3.263845.755647 1.07696.284736 2.022046.646133 2.83526 1.084189s1.472577.974675 1.978088 1.609856c.505512.635181.758268 1.412731.758268 2.332649 0 1.007529-.230777 1.905544-.692331 2.694045s-1.06597 1.445585-1.813248 1.971253c-.747278.525667-1.637417.930869-2.670419 1.215605-1.033002.284737-2.098971.427105-3.197909.427105-1.846216 0-3.626495-.251882-5.340839-.755647-1.714343-.503764-3.450665-1.215605-5.208965-2.135523l-1.582471 4.073922c4.044092 2.015058 8.110162 3.022587 12.198211 3.022587zm23.671123-40.607803c.967065 0 1.802258-.361396 2.505578-1.084189.70332-.722792 1.054981-1.587953 1.054981-2.595482 0-.963724-.351661-1.79603-1.054981-2.49692s-1.538513-1.051335-2.505578-1.051335c-1.011023 0-1.868195.350445-2.571515 1.051335s-1.05498 1.533196-1.05498 2.49692c0 1.007529.35166 1.87269 1.05498 2.595482.70332.722793 1.560492 1.084189 2.571515 1.084189zm2.373706 39.819302v-33.971253h-4.813348v33.971253zm25.715147 16.952772c2.022046 0 4.044091-.306639 6.066137-.919918 2.022046-.613278 3.835293-1.577002 5.439743-2.89117 1.604449-1.314169 2.901196-3.000685 3.89024-5.059549.989044-2.058863 1.483566-4.555783 1.483566-7.490759v-34.562629h-4.549603v5.125257c-1.890173-2.234086-3.978155-3.811088-6.263946-4.731006s-4.637518-1.379877-7.055181-1.379877c-2.593494 0-4.923242.492813-6.989245 1.47844-2.066004.985626-3.802326 2.310746-5.208966 3.975359-1.406641 1.664613-2.4836 3.570157-3.230878 5.716632-.747277 2.146475-1.120916 4.402464-1.120916 6.767967 0 2.365504.373639 4.621493 1.120916 6.767968.747278 2.146475 1.824237 4.041067 3.230878 5.683778 1.40664 1.64271 3.142962 2.945927 5.208966 3.909651 2.066003.963723 4.395751 1.445585 6.989245 1.445585 2.593493 0 5.000167-.514716 7.220022-1.544148 2.219854-1.029432 4.186953-2.485968 5.901296-4.36961v6.176592c0 1.708419-.329681 3.263518-.989044 4.665297-.659362 1.40178-1.538513 2.595483-2.637451 3.581109s-2.362716 1.752225-3.791335 2.299795c-1.42862.54757-2.890207.821355-4.384763.821355-2.637451 0-4.978189-.438056-7.022213-1.314168-2.044025-.876113-3.857272-1.94935-5.439743-3.219713l-2.505578 4.073922c1.890173 1.40178 4.055081 2.584531 6.494723 3.548255 2.439642.963723 5.154019 1.445585 8.14313 1.445585zm-.461554-20.632444c-1.890173 0-3.582538-.361396-5.077093-1.084188-1.494556-.722793-2.769324-1.697468-3.824304-2.924025-1.054981-1.226557-1.857205-2.65024-2.406674-4.271047-.549469-1.620808-.824204-3.307324-.824204-5.059549 0-1.752224.274735-3.43874.824204-5.059548.549469-1.620807 1.351693-3.055441 2.406674-4.303901 1.05498-1.24846 2.329748-2.245038 3.824304-2.989733 1.494555-.744696 3.18692-1.117043 5.077093-1.117043 1.450598 0 2.813281.208076 4.088049.62423 1.274768.416153 2.439642.974674 3.494623 1.675564 1.05498.70089 2.000067 1.489391 2.835259 2.365503.835193.876113 1.538513 1.79603 2.109961 2.759754v12.024641c-.615405.919917-1.329715 1.828884-2.142929 2.726899s-1.747311 1.686516-2.802291 2.365503c-1.054981.678987-2.219855 1.226557-3.494623 1.64271-1.274768.416154-2.637451.62423-4.088049.62423zm32.902201 3.679672v-22.997947c1.318726-2.234086 3.055048-4.041067 5.208966-5.420944s4.373773-2.069815 6.659564-2.069815c1.494555 0 2.890206.229979 4.186953.689938s2.417664 1.160849 3.36275 2.102669c.945087.941821 1.692365 2.124573 2.241833 3.548255.549469 1.423682.824204 3.099247.824204 5.026694v19.12115h4.813348v-19.449692c0-2.759754-.417596-5.125257-1.252789-7.096509-.835193-1.971253-1.923142-3.581109-3.263846-4.829569s-2.857238-2.157427-4.549603-2.726899c-1.692364-.569473-3.417697-.85421-5.175997-.85421-2.901197 0-5.461722.591376-7.681576 1.774127-2.219855 1.182752-4.099039 2.715948-5.637552 4.59959v-5.388091h-4.549603v33.971253z" fill="#fff" fill-rule="nonzero"/></g></svg>