<svg height="800" viewBox="0 0 800 800" width="800" xmlns="http://www.w3.org/2000/svg"><g fill="none" fill-rule="evenodd"><path d="m0 0h800v800h-800z" fill="#fff" fill-opacity=".01"/><g transform="translate(280 280)"><rect fill="#fff" height="242" rx="64" stroke="#eaeef0" stroke-width="2" width="242" x="-1" y="-1"/><rect fill="#d3e4ff" height="24" rx="12" width="24" x="168" y="168"/><g transform="matrix(-.70710678 .70710678 -.70710678 -.70710678 194.873629 80.908117)"><path d="m54.6122983 82.0410951 27.3484331 27.3479909 27.3488756-27.3479909-27.3488756-27.347548z" fill="#173b75"/><path d="m81.9607756 54.6939011-27.348433 27.3471055-27.3462204-27.3471055 27.3462204-27.3462204z" fill="#2f75ea"/><path d="m0 27.4276019 27.3462204 27.3444502 27.347548-27.3444502-27.347548-27.34976065z" fill="#82acf2"/><path d="m136.65658 54.6939011-27.346663 27.3471055-27.3493184-27.3471055 27.3493184-27.3462204z" fill="#2f75ea"/><g fill="#82acf2"><path d="m54.6206622 27.3543187 27.3479905 27.347548 27.3462203-27.347548-27.3462203-27.3479905z"/><path d="m136.656403-.00022127-27.346663 27.34799047 27.346663 27.3457779 27.34622-27.3457779z"/></g></g></g></g></svg>