<svg height="800" viewBox="0 0 800 800" width="800" xmlns="http://www.w3.org/2000/svg" xmlns:xlink="http://www.w3.org/1999/xlink"><linearGradient id="a" x1="50%" x2="50%" y1="0%" y2="100%"><stop offset="0" stop-color="#41464b"/><stop offset="1" stop-color="#222528"/></linearGradient><linearGradient id="b" x1="50%" x2="50%" y1="0%" y2="100%"><stop offset="0" stop-color="#9d9d9d"/><stop offset="1" stop-color="#9d9d9d" stop-opacity="0"/></linearGradient><linearGradient id="c" x1="50%" x2="50%" y1="0%" y2="100%"><stop offset="0" stop-color="#9d9d9d" stop-opacity="0"/><stop offset=".234163851" stop-color="#9d9d9d" stop-opacity=".860615"/><stop offset="1" stop-color="#9d9d9d" stop-opacity="0"/></linearGradient><linearGradient id="d" x1="100%" x2="0%" y1="50%" y2="50%"><stop offset="0" stop-color="#9d9d9d" stop-opacity="0"/><stop offset=".498653927" stop-color="#9d9d9d"/><stop offset="1" stop-color="#9d9d9d" stop-opacity="0"/></linearGradient><linearGradient id="e" x1="50%" x2="50%" y1="0%" y2="100%"><stop offset="0" stop-color="#e9e9e9"/><stop offset="1" stop-color="#cacaca"/></linearGradient><g fill="none" fill-rule="evenodd"><path d="m0 0h800v800h-800z" fill="#fff" fill-opacity=".01"/><g transform="translate(280 280)"><rect fill="url(#a)" height="240" rx="64" width="240"/><g stroke-width=".5"><path d="m100 164v32m-26 0v-32" stroke="url(#b)"/><path d="m165 164v32m-26 0v-32" stroke="url(#b)"/><path d="m91 169v24m-8 0v-24" opacity=".5" stroke="url(#c)"/><path d="m156 169v24m-8 0v-24" opacity=".5" stroke="url(#c)"/></g><path d="m80 68h80v1h-80z" fill="url(#d)"/><path d="m73 72.5h80v1h-80z" fill="url(#d)" transform="matrix(.34202014 -.93969262 .93969262 .34202014 5.989086 154.053301)"/><path d="m87 72.5h80v1h-80z" fill="url(#d)" transform="matrix(.34202014 .93969262 -.93969262 .34202014 151.92608 -71.472928)"/><path d="m125.730757 68.0103185 31.031188 85.2600005.005464.014019c1.724933 4.511645 6.094593 7.715662 11.212591 7.715662h1.02v4h-34v-4l1.998945-.000681.000157-.001706c.056772.001588.113742.002387.170898.002387 3.313708 0 6-2.686292 6-6 0-.701268-.120307-1.374437-.341409-1.999992l.001354-.000689-8.008-22h-35.7230004l-7.461 20.5.0019337.000029c-.2971087.77658-.4598783 1.619608-.4598783 2.500652 0 3.785452 3.0047834 6.869099 6.7593502 6.995941l.0605944.000378v.003l4.0000554.000681v4l-17.3830554-.000681-.6496899.004254-.0113101-.004254-11.9559446.000681-.0000554-4.004451c.1096578.002961.2196826.004451.3300554.004451 5.0723017 0 9.4095687-3.147058 11.1657563-7.595128l29.9781887-82.3665535.296479-.8278891.005521-.0021109.799307-2.1949002 6.981659-.0028178.003034.000718zm-8.770812 13.914-15.677 43.0750005h31.356z" fill="url(#e)"/><circle cx="72.33" cy="149" opacity=".3" r="11.75" stroke="#9d9d9d" stroke-width=".5"/><circle cx="98.18" cy="154" opacity=".2" r="6.75" stroke="#9d9d9d" stroke-width=".5"/><circle cx="137.17" cy="155" opacity=".2" r="5.75" stroke="#9d9d9d" stroke-width=".5"/><circle cx="167.98" cy="149" opacity=".3" r="11.75" stroke="#9d9d9d" stroke-width=".5"/></g></g></svg>