<svg height="800" viewBox="0 0 800 800" width="800" xmlns="http://www.w3.org/2000/svg"><g fill="none" fill-rule="evenodd"><path d="m0 0h800v800h-800z" fill="#fff" fill-opacity=".01"/><g transform="translate(216 320)"><g fill="#000"><path d="m0 0h168v16h-168z"/><path d="m48 72h72v16h-72z" transform="matrix(.70710678 -.70710678 .70710678 .70710678 -31.965512 82.828427)"/><path d="m0 144h168v16h-168z"/></g><path d="m8 56h152v48h-152z" stroke="#000" stroke-width="16"/></g><g transform="translate(416 320)"><g fill="#000"><path d="m0 16h168v16h-168z"/><path d="m28 48h112v16h-112z" transform="matrix(0 1 -1 0 140 -28)"/><path d="m0 144h168v16h-168z"/></g><path d="m8 72h152v80h-152z" stroke="#000" stroke-width="16"/></g></g></svg>