<svg height="800" viewBox="0 0 800 800" width="800" xmlns="http://www.w3.org/2000/svg" xmlns:xlink="http://www.w3.org/1999/xlink"><linearGradient id="a" x1="37.86386%" x2="67.017684%" y1="0%" y2="103.083132%"><stop offset="0" stop-color="#5aff9f"/><stop offset="1" stop-color="#27ff70"/></linearGradient><g fill="none" fill-rule="evenodd"><path d="m0 0h800v800h-800z" fill="#fff" fill-opacity=".01"/><g fill-rule="nonzero" transform="translate(280 280)"><rect fill="url(#a)" height="240" rx="64" width="240"/><path d="m109.697288 191.537396c-31.3176875-4.820554-56.5738874-30.290348-60.9035217-61.444078-.505124-3.381583-.7937663-20.289497-.7937663-43.816679v-38.276639l10.6797646 10.5764397 10.6076039 10.5764398 2.8864229-2.5901486c4.4739554-3.9571713 14.143472-10.0727997 19.7719965-12.4471025 9.3087141-3.9571713 16.5247711-5.3241941 28.2147831-5.3241941 8.442787 0 11.690013.2877942 16.885574 1.5828685 26.122127 6.5473198 45.966284 25.9734336 52.965859 51.8749182 2.52562 9.56916 2.669941 25.325897.288643 34.823108-6.638773 26.549022-26.410769 46.26293-53.182341 53.098044-6.638773 1.654818-20.782245 2.374303-27.421018 1.367023zm51.089685-43.24109c2.669941-1.367023 4.113153-3.741326 4.113153-6.907063 0-2.446251-.577285-3.597428-3.175066-6.835114-8.87575-10.864234-16.596931-24.966153-21.070886-38.420536-2.958584-9.0655197-4.618277-11.0800797-9.020072-11.0800797-5.339882 0-6.205809 1.00728-8.947911 10.4325426-2.886423 9.8569541-7.64902 18.4188341-14.792917 26.5490221-4.329634 4.964451-4.834758 8.202137-1.804014 11.799565 2.309138 2.734046 5.195561 3.453532 8.514947 2.01456 2.814263-1.151177 4.329635-3.525479 5.123401-7.986291.793766-4.388863 4.473955-13.094639 7.865502-18.490782 1.659693-2.734046 3.247226-4.892503 3.463708-4.892503 1.010248 0 8.226305 12.015411 11.834333 19.785857 2.092657 4.316914 4.834759 11.080079 6.133649 14.965302 1.948335 5.971731 2.669941 7.338754 4.618276 8.489931 2.52562 1.582869 4.834759 1.726766 7.143897.575589zm-74.8305125-22.519902c1.8040143-1.798715 2.4534594-3.093789 2.4534594-4.892503 0-3.237686 1.8761749-9.641108 3.8245103-12.806845.7937663-1.367023 3.535868-4.676657 6.061488-7.338755 3.5358678-3.6693766 4.5461158-5.2522451 4.5461158-6.9790108 0-6.8351141-7.2882175-10.4325425-12.2672969-5.9717312-1.8761749 1.6548171-2.3091383 2.7340456-2.9585835 6.9790112-.9380874 6.9070628-3.9688314 12.6629478-9.6695165 18.4188338-4.040992 4.173017-4.6904371 5.180297-4.6904371 7.482651 0 3.741326 3.8245102 7.5546 7.5768599 7.5546 2.0926566 0 3.2472258-.575588 5.1234006-2.446251z" fill="#fff" transform="matrix(1 0 0 -1 0 240)"/></g></g></svg>