<svg height="800" viewBox="0 0 800 800" width="800" xmlns="http://www.w3.org/2000/svg" xmlns:xlink="http://www.w3.org/1999/xlink"><defs><rect id="a" height="240" rx="64" width="240"/><filter id="b" height="123.3%" width="123.3%" x="-11.7%" y="-11.7%"><feGaussianBlur in="SourceAlpha" result="shadowBlurInner1" stdDeviation="28"/><feOffset dx="0" dy="0" in="shadowBlurInner1" result="shadowOffsetInner1"/><feComposite in="shadowOffsetInner1" in2="SourceAlpha" k2="-1" k3="1" operator="arithmetic" result="shadowInnerInner1"/><feColorMatrix in="shadowInnerInner1" type="matrix" values="0 0 0 0 0   0 0 0 0 0   0 0 0 0 0  0 0 0 1 0"/></filter><filter id="c" height="143.8%" width="139%" x="-19.5%" y="-21.9%"><feOffset dx="0" dy="5" in="SourceAlpha" result="shadowOffsetOuter1"/><feGaussianBlur in="shadowOffsetOuter1" result="shadowBlurOuter1" stdDeviation="7.5"/><feColorMatrix in="shadowBlurOuter1" result="shadowMatrixOuter1" type="matrix" values="0 0 0 0 0   0 0 0 0 0   0 0 0 0 0  0 0 0 0.1 0"/><feMerge><feMergeNode in="shadowMatrixOuter1"/><feMergeNode in="SourceGraphic"/></feMerge></filter><radialGradient id="d" cx="50%" cy="0%" gradientTransform="matrix(0 1 -.818181 0 .5 -.5)" r="115.785692%"><stop offset="0" stop-color="#ff5a72"/><stop offset=".405299831" stop-color="#f5263e"/><stop offset="1" stop-color="#ff5e6b"/></radialGradient><linearGradient id="e" x1="50%" x2="50%" y1="0%" y2="100%"><stop offset="0" stop-color="#ff2e46"/><stop offset="1" stop-color="#e60e26"/></linearGradient><linearGradient id="f" x1="100%" x2="0%" y1="50%" y2="50%"><stop offset="0" stop-color="#e3dfdf"/><stop offset=".499287373" stop-color="#d1cdcd"/><stop offset="1" stop-color="#e1dddd"/></linearGradient><linearGradient id="g" x1="2.873258%" x2="98.102993%" y1="56.85817%" y2="52.88354%"><stop offset="0" stop-color="#f4eeee"/><stop offset="1" stop-color="#f1ebeb"/></linearGradient><mask id="h" fill="#fff"><use fill="#fff" fill-rule="evenodd" xlink:href="#a"/></mask></defs><g fill="none" fill-rule="evenodd"><path d="m0 0h800v800h-800z" fill="#fff" fill-opacity=".01"/><g transform="translate(280 280)"><use fill="#111" fill-rule="evenodd" xlink:href="#a"/><use fill="#000" filter="url(#b)" xlink:href="#a"/><g filter="url(#c)" mask="url(#h)"><path d="m172.900214 103.305632c8.790271-11.691894 11.515038-26.9286165 11.715169-37.6590755 0-20.1952176-18.531161-45.6465711-44.590842-45.6465711-16.75238 0-28.506553 6.304605-34.765729 10.8080258-1.076977.7748757-1.99127 1.4964255-2.740347 2.1233578-3.4652767 2.4362906-1.599473 2.4243546-4.9754419.0515633-.7540804-.6335389-1.6798056-1.3665165-2.7744973-2.1552351-6.2522536-4.5047097-18.0162662-10.8277118-34.7930707-10.8277118-26.0596811 0-44.5908416 25.4513535-44.5908416 45.6465711 0 20.1952175 9.6881765 40.1152385 27.1142794 54.9210795 17.426103 14.805842 29.0734194 23.660275 41.6357206 31.300221 1.9589465 1.191362 3.6863172 2.258698 5.2077013 3.211584 8.2349235 5.157763 16.0243342 3.717955 21.2315392.321039 1.830992-1.194446 3.666424-2.414765 5.291529-3.532623 6.246781-4.296962 13.429699-9.301046 13.429699-9.301046s31.977985-23.094183 43.605132-39.261179z" fill="url(#d)" fill-rule="evenodd" transform="matrix(.96592583 -.25881905 .25881905 .96592583 3.3128 66.922383)"/><rect fill="none" height="9.923077" rx="4.961538" stroke="url(#e)" stroke-width="3.076923" transform="matrix(.93969262 .34202014 -.34202014 .93969262 55.08881 7.527881)" width="10.769231" x="97.067778" y="70.794745"/><g fill-rule="evenodd"><path d="m108.60791 11.6938994h9.230769l.013034 65.3014508c.000508 2.5484978-2.065045 4.6148758-4.613543 4.6153844-.000307.0000001-.000614.0000001-.000921.0000001-2.549155 0-4.615797-2.066229-4.616306-4.6153845z" fill="url(#f)" transform="matrix(.93969262 .34202014 -.34202014 .93969262 45.784653 2.086445)"/><ellipse cx="125.180198" cy="13.799764" fill="#b2aeae" rx="4.307692" ry="2.769231" stroke="url(#g)" stroke-width=".615385" transform="matrix(.93969262 .34202014 -.34202014 .93969262 35.269087 -3.981922)"/></g></g></g></g></svg>