<svg height="800" viewBox="0 0 800 800" width="800" xmlns="http://www.w3.org/2000/svg" xmlns:xlink="http://www.w3.org/1999/xlink"><defs><linearGradient id="a" x1="50%" x2="50%" y1="0%" y2="100%"><stop offset="0" stop-color="#00c1ff"/><stop offset="1" stop-color="#0092ff"/></linearGradient><rect id="b" height="240" rx="64" width="240"/><linearGradient id="c" x1="50%" x2="50%" y1="0%" y2="100%"><stop offset="0" stop-color="#fff" stop-opacity=".4"/><stop offset="1" stop-color="#fff"/></linearGradient><mask id="d" fill="#fff"><use fill="#fff" fill-rule="evenodd" xlink:href="#b"/></mask></defs><g fill="none" fill-rule="evenodd"><path d="m0 0h800v800h-800z" fill="#fff" fill-opacity=".01"/><g transform="translate(280 280)"><use fill="url(#a)" xlink:href="#b"/><path d="m85.3519013 130.658085 63.1900207-.357498c1.104552-.006249 2.005034.884102 2.011283 1.988654.00243.429468-.133451.848312-.387539 1.194561l-23.424965 31.921561c-2.613957 3.562079-7.620623 4.330685-11.182703 1.716728-.381507-.279961-.737422-.59322-1.063558-.936092l-30.5803605-32.14954c-.7612726-.800336-.7296054-2.06627.0707306-2.827543.3689584-.35095.8578881-.54795 1.3670912-.550831z" fill="url(#c)" mask="url(#d)" opacity=".16" transform="matrix(.8660254 -.5 .5 .8660254 -60.223603 78.634302)"/><g fill="#fff"><rect height="76" mask="url(#d)" rx="10" width="20" x="117" y="53"/><rect height="68" mask="url(#d)" rx="10" transform="matrix(.5 .8660254 -.8660254 .5 166.949328 -25.164718)" width="20" x="95.267949" y="98"/></g></g></g></svg>