<svg height="800" viewBox="0 0 800 800" width="800" xmlns="http://www.w3.org/2000/svg"><g fill="none" fill-rule="evenodd"><path d="m0 0h800v800h-800z" fill="#fff" fill-opacity=".01"/><path d="m180 295h440v210h-440z" fill="#fd4646" fill-rule="nonzero"/><g fill="#fff"><path d="m44 2.75c11.2594521 0 21.2793356 5.30722405 27.694518 13.5565396 8.248258 6.4141248 13.555482 16.4340083 13.555482 27.6934604s-5.307224 21.2793356-13.5565396 27.694518c-6.4141248 8.248258-16.4340083 13.555482-27.6934604 13.555482s-21.2793356-5.307224-27.694518-13.5565396c-8.24825795-6.4141248-13.555482-16.4340083-13.555482-27.6934604s5.30722405-21.2793356 13.5565396-27.694518c6.4141248-8.24825795 16.4340083-13.555482 27.6934604-13.555482zm0 8.25c-18.2253967 0-33 14.7746033-33 33s14.7746033 33 33 33 33-14.7746033 33-33-14.7746033-33-33-33zm0 5.5c15.1878306 0 27.5 12.3121694 27.5 27.5s-12.3121694 27.5-27.5 27.5-27.5-12.3121694-27.5-27.5 12.3121694-27.5 27.5-27.5zm12.375 15.125h-24.75v24.75h24.75zm-5.5 5.5v13.75h-13.75v-13.75z" transform="translate(238 356)"/><path d="m355.771484 416.537109c.93099 0 1.690105-.318685 2.277344-.956054.58724-.63737.88086-1.614909.88086-2.932617v-22.88086h6.960937c1.088542 0 1.904948-.239909 2.449219-.719726.544271-.479818.816406-1.113607.816406-1.901368 0-.78776-.268555-1.42513-.805664-1.912109s-1.357096-.730469-2.459961-.730469h-20.28125c-1.045573 0-1.844076.236328-2.395508.708985-.551432.472656-.827148 1.117187-.827148 1.933593 0 .787761.264974 1.42155.794922 1.901368.529948.479817 1.339192.719726 2.427734.719726h6.960937v22.88086c0 1.303385.297201 2.277343.891602 2.921874.594401.644532 1.364258.966797 2.30957.966797zm30.572266 0c2.477865 0 4.676432-.386718 6.595703-1.160156 1.919271-.773437 3.537761-1.890625 4.855469-3.351562 1.317708-1.460938 2.305989-3.186849 2.964844-5.177735.658854-1.990885.988281-4.203776.988281-6.638672 0-3.29427-.601563-6.162435-1.804688-8.604492s-2.975586-4.325521-5.317382-5.65039c-2.341797-1.32487-5.145508-1.987305-8.411133-1.987305-2.40625 0-4.554688.375976-6.445313 1.12793-1.890625.751953-3.494791 1.836914-4.8125 3.254882-1.317708 1.417969-2.323893 3.136719-3.018554 5.15625-.694662 2.019532-1.041993 4.239584-1.041993 6.660157 0 2.363281.333008 4.561849.999024 6.595703.666015 2.033854 1.650716 3.774088 2.954101 5.220703 1.303386 1.446614 2.929037 2.567383 4.876953 3.362305 1.947917.794921 4.153646 1.192382 6.617188 1.192382zm-.042969-5.070312c-1.274739 0-2.445638-.236328-3.512695-.708985-1.067057-.472656-2.01237-1.185221-2.835938-2.137695-.823567-.952474-1.460937-2.152018-1.912109-3.598633-.451172-1.446614-.676758-3.065104-.676758-4.855468 0-1.776042.225586-3.376628.676758-4.801758s1.067057-2.596029 1.847656-3.512696c.780599-.916666 1.711589-1.614908 2.792969-2.094726s2.25944-.719727 3.53418-.719727c1.790364 0 3.376627.433269 4.758789 1.299805 1.382161.866537 2.445638 2.144857 3.190429 3.834961.744792 1.690104 1.117188 3.688151 1.117188 5.994141 0 2.492187-.404622 4.590494-1.213867 6.294922-.809245 1.704427-1.897787 2.964843-3.265625 3.78125-1.367839.816406-2.868164 1.224609-4.500977 1.224609zm43.914063 5.070312c2.291666 0 3.4375-1.382161 3.4375-4.146484v-24.771484c0-1.217448-.264974-2.130534-.794922-2.739258s-1.253255-.913086-2.169922-.913086c-.888021 0-1.593424.304362-2.116211.913086-.522786.608724-.78418 1.52181-.78418 2.739258v18.734375l-12.267578-18.5625c-.34375-.544271-.676758-1.067058-.999023-1.56836-.322266-.501302-.63737-.909505-.945313-1.224609-.307942-.315104-.666015-.565755-1.074218-.751953-.408204-.186198-.898763-.279297-1.47168-.279297-.730469 0-1.410807.204101-2.041016.612305-.630208.408203-1.08138.93457-1.353515 1.579101-.229167.58724-.34375 1.396485-.34375 2.427735v24.298828c0 1.188802.272135 2.094726.816406 2.717773s1.267578.93457 2.169922.93457c.873698 0 1.589844-.307942 2.148437-.923828.558594-.615885.837891-1.52539.837891-2.728515v-18.455078l11.966797 18.347656c.34375.501302.6875.991862 1.03125 1.471679.34375.479818.716146.898763 1.117187 1.256836.401042.358073.830729.619467 1.289063.78418.458333.164714.973958.24707 1.546875.24707zm25.201172 0c2.076823 0 3.996093-.236328 5.757812-.708984s3.595052-1.224609 5.5-2.255859c.658854-.358073 1.199544-.730469 1.62207-1.117188s.712566-.819987.870118-1.299805c.157552-.479817.236328-1.120768.236328-1.922851v-6.03711c0-1.088541-.189779-1.904947-.569336-2.449218s-.877279-.895183-1.493164-1.052735c-.615886-.157552-1.367839-.236328-2.25586-.236328h-7.240234c-.873698 0-1.564779.229167-2.073242.6875-.508464.458334-.762696 1.038412-.762696 1.740235 0 .859375.304362 1.468099.913086 1.826172.608724.358072 1.507487.537109 2.69629.537109h4.941406v5.113281c-1.332032.716146-2.646159 1.267578-3.942383 1.654297s-2.681966.580078-4.157227.580078c-3.036458 0-5.40332-.995443-7.100586-2.986328-1.697265-1.990885-2.545898-4.833984-2.545898-8.529297 0-1.704427.218424-3.258463.655273-4.662109s1.067058-2.588867 1.890625-3.555664c.823568-.966797 1.81543-1.704427 2.975586-2.212891 1.160157-.508463 2.477865-.762695 3.953125-.762695 1.432292 0 2.610352.214843 3.53418.644531s1.657878.959635 2.202149 1.589844c.54427.630208 1.210286 1.561198 1.998046 2.792968.286459.386719.640951.6875 1.063477.902344s.862956.322266 1.321289.322266c.830729 0 1.543294-.282878 2.137695-.848633s.891602-1.249674.891602-2.051758c0-.744791-.257813-1.597005-.773438-2.55664-.515625-.959636-1.281901-1.869141-2.298828-2.728516s-2.341797-1.57194-3.974609-2.137695c-1.632813-.565756-3.509115-.848633-5.628906-.848633-2.578125 0-4.884115.375976-6.917969 1.12793-2.033854.751953-3.759766 1.836914-5.177735 3.254882-1.417968 1.417969-2.492187 3.143881-3.222656 5.177735-.730468 2.033854-1.095703 4.27539-1.095703 6.724609 0 2.492188.375977 4.748047 1.12793 6.767578s1.829752 3.738281 3.233398 5.15625 3.100912 2.499349 5.091797 3.244141c1.990886.744792 4.196615 1.117187 6.617188 1.117187zm33.515625-.537109c1.661458 0 3.115234-.082357 4.361328-.24707 1.246093-.164714 2.348958-.447591 3.308593-.848633 1.532553-.673177 2.75-1.715169 3.652344-3.125977.902344-1.410807 1.353516-2.99707 1.353516-4.758789 0-3.809896-2.069662-6.373698-6.208984-7.691406 3.151041-1.460937 4.726562-3.766927 4.726562-6.917969 0-.916666-.150391-1.786784-.451172-2.610351-.300781-.823568-.73763-1.575521-1.310547-2.25586-.572916-.680338-1.231771-1.242513-1.976562-1.686523-.873698-.529948-1.861979-.888021-2.964844-1.074219s-2.40625-.279297-3.910156-.279297h-10.205078c-1.360677 0-2.345378.304362-2.954102.913086s-.913086 1.607748-.913086 2.99707v23.675782c0 1.360677.297201 2.352539.891602 2.975586s1.586263.93457 2.975586.93457zm-1.267579-18.5625h-5.84375v-8.142578h5.177735c2.320312 0 4.046224.261393 5.177734.78418 1.131511.522786 1.697266 1.579101 1.697266 3.168945 0 .744792-.179037 1.417969-.537109 2.019531-.458334.845052-1.120769 1.417969-1.987305 1.71875-.866537.300781-2.094727.451172-3.684571.451172zm1.009766 13.771484h-6.853516v-9.195312h6.638672c2.220052 0 3.888672.358073 5.00586 1.074219 1.117187.716145 1.675781 1.86914 1.675781 3.458984 0 3.108073-2.155599 4.662109-6.466797 4.662109zm40.626953 5.328125c.859375 0 1.593425-.304362 2.202149-.913086s.913086-1.27832.913086-2.008789c0-.701823-.322266-1.826172-.966797-3.373046l-8.228516-20.324219c-.386719-1.016927-.705404-1.829753-.956055-2.438477s-.558593-1.17806-.923828-1.708008c-.365234-.529948-.845052-.963216-1.439453-1.299804-.594401-.336589-1.335612-.504883-2.223633-.504883-.873698 0-1.607747.168294-2.202148.504883-.594401.336588-1.074219.777018-1.439453 1.321289-.365235.544271-.708985 1.22819-1.03125 2.051758-.322266.823567-.597982 1.528971-.827149 2.116211l-8.05664 20.453124c-.329427.816407-.565755 1.453777-.708985 1.91211-.143229.458333-.214843.902344-.214843 1.332031 0 .744792.307942 1.410807.923828 1.998047.615885.58724 1.32487.880859 2.126953.880859.945312 0 1.625651-.275716 2.041015-.827148.415365-.551432.916667-1.614909 1.503907-3.19043l1.503906-4.039062h12.804687l1.503907 3.953125c.200521.486979.440429 1.049153.719726 1.686523s.54069 1.110026.78418 1.417969.544271.551432.902344.730469c.358073.179036.78776.268554 1.289062.268554zm-6.917969-12.847656h-9.410156l4.66211-12.998047zm28.123047 12.847656c2.477865 0 4.676433-.386718 6.595703-1.160156 1.919271-.773437 3.537761-1.890625 4.855469-3.351562 1.317709-1.460938 2.30599-3.186849 2.964844-5.177735.658854-1.990885.988281-4.203776.988281-6.638672 0-3.29427-.601562-6.162435-1.804687-8.604492s-2.975586-4.325521-5.317383-5.65039c-2.341797-1.32487-5.145508-1.987305-8.411133-1.987305-2.40625 0-4.554687.375976-6.445312 1.12793-1.890625.751953-3.494792 1.836914-4.8125 3.254882-1.317709 1.417969-2.323894 3.136719-3.018555 5.15625-.694662 2.019532-1.041992 4.239584-1.041992 6.660157 0 2.363281.333008 4.561849.999023 6.595703.666016 2.033854 1.650716 3.774088 2.954102 5.220703 1.303385 1.446614 2.929036 2.567383 4.876953 3.362305 1.947917.794921 4.153646 1.192382 6.617187 1.192382zm-.042968-5.070312c-1.27474 0-2.445638-.236328-3.512696-.708985-1.067057-.472656-2.012369-1.185221-2.835937-2.137695s-1.460938-2.152018-1.91211-3.598633c-.451171-1.446614-.676757-3.065104-.676757-4.855468 0-1.776042.225586-3.376628.676757-4.801758.451172-1.42513 1.067058-2.596029 1.847657-3.512696.780599-.916666 1.711588-1.614908 2.792968-2.094726 1.081381-.479818 2.259441-.719727 3.53418-.719727 1.790365 0 3.376628.433269 4.758789 1.299805 1.382162.866537 2.445638 2.144857 3.19043 3.834961s1.117187 3.688151 1.117187 5.994141c0 2.492187-.404622 4.590494-1.213867 6.294922-.809245 1.704427-1.897786 2.964843-3.265625 3.78125-1.367838.816406-2.868164 1.224609-4.500976 1.224609z" fill-rule="nonzero"/></g></g></svg>