<svg height="800" viewBox="0 0 800 800" width="800" xmlns="http://www.w3.org/2000/svg" xmlns:xlink="http://www.w3.org/1999/xlink"><defs><linearGradient id="a" x1="14.873535%" x2="83.671288%" y1="6.047933%" y2="97.656661%"><stop offset="0" stop-color="#5500ba"/><stop offset="1" stop-color="#d400c0"/></linearGradient><rect id="b" height="240" rx="64" width="240"/><mask id="c" fill="#fff"><use fill="#fff" fill-rule="evenodd" xlink:href="#b"/></mask></defs><g fill="none" fill-rule="evenodd"><path d="m0 0h800v800h-800z" fill="#fff" fill-opacity=".01"/><g transform="translate(280 280)"><use fill="url(#a)" xlink:href="#b"/><g fill="#fff"><rect height="8" mask="url(#c)" rx="4" transform="matrix(.93969262 .34202014 -.34202014 .93969262 31.400507 -11.522797)" width="32" x="32.374769" y="79.279163"/><rect height="8" mask="url(#c)" rx="4" transform="matrix(.64278761 .76604444 -.76604444 .64278761 64.073922 -39.535325)" width="32" x="58.42885" y="44.935822"/><path d="m155 152c15.463973 0 28 12.536027 28 28s-12.536027 28-28 28-28-12.536027-28-28 12.536027-28 28-28zm0 8c-11.045695 0-20 8.954305-20 20s8.954305 20 20 20 20-8.954305 20-20-8.954305-20-20-20z" fill-rule="nonzero" mask="url(#c)"/><path d="m123 91c9.941125 0 18 8.0588745 18 18 0 9.941125-8.058875 18-18 18s-18-8.058875-18-18c0-9.9411255 8.058875-18 18-18zm0 8c-5.522847 0-10 4.477153-10 10s4.477153 10 10 10 10-4.477153 10-10-4.477153-10-10-10z" fill-rule="nonzero" mask="url(#c)"/><path d="m190 97c9.941125 0 18 8.058875 18 18s-8.058875 18-18 18-18-8.058875-18-18 8.058875-18 18-18zm0 8c-5.522847 0-10 4.477153-10 10s4.477153 10 10 10 10-4.477153 10-10-4.477153-10-10-10z" fill-rule="nonzero" mask="url(#c)"/></g></g></g></svg>