<svg height="800" viewBox="0 0 800 800" width="800" xmlns="http://www.w3.org/2000/svg"><g fill="none" fill-rule="evenodd"><path d="m0 0h800v800h-800z" fill="#fff" fill-opacity=".01"/><rect fill="#00a1e9" fill-rule="nonzero" height="240" rx="64" width="240" x="280" y="280"/><path d="m65.6802156 100.799995c-8.2513687-.256719-12.5020101-4.2358037-12.7520515-11.9373734 0-28.2853848 0-49.354627 0-63.2077266.1217102-4.8746756 2.3009445-7.9003547 5.8217068-9.2739095 2.1024496-.8202286 4.7770188-1.3772072 8.0237076-1.6709359.7752828-.0366301 1.1609492.3189999 1.1569991 1.0668901v21.4854232h22.407004c.8339294-.0426335 1.1807997.2961998 1.0406109 1.0165002-.2346293 1.0328794-1.018421 2.7924533-2.3513751 5.2787216-2.0177341 3.7635419-4.3442088 5.6453128-6.979424 5.6453128h-14.1168158v35.0356441c-.2500414 3.8507848 1.5002226 5.6477908 5.2508448 5.3910718 7.5431855-.0104967 13.2346844-.0157451 17.0744968-.0157451.9327872 0 1.0897285.2231762.9327872 1.2179566-.1569412.9947805-.6511803 2.6002659-1.5992529 4.8157768-1.746951 4.0823764-4.4164877 5.1523933-6.5535922 5.1523933-4.0701778 0-9.855393 0-17.3556457 0zm-60.74537303-52.7049388c.13439275-.3870793.15812911-.4704355.25681781-.7487072.5112673-1.441616 1.16094081-3.2249867 1.94902052-5.3501119 1.17033737-3.1559161 3.2189301-4.7338742 6.1457782-4.7338742h14.1376019c.0510187.0119562.0510187-4.0964686 0-12.3252745.0775003-3.6886696 1.8630384-7.0632416 6.2528347-8.4158399 2.622203-.8079617 5.2363741-1.376151 7.8425132-1.7045679.9239881-.0731002.9070868.560034.9070868.8923797v73.1535613c0 7.9582887-4.2506625 11.9373784-12.7520727 11.9373784-10.5068949 0-18.3870661 0-23.64051355 0-.48527621 0-1.6046817.013867-1.11079157-1.406252.47726507-1.708303 1.18691725-3.5142951 2.12895654-5.4179762 1.80707735-3.6517575 4.52404338-4.3461584 5.83684528-4.3461584h9.2842965c3.7506222.256719 5.5008862-1.6686445 5.2508448-5.7761483v-34.6505676h-20.95425384-.73474222c-.69375629-.0293105-.96049708-.3985909-.80022237-1.1078413zm121.26295043-15.0352296c.507264-2.4933945 2.484097-9.3195785 5.446638-9.47693h5.143666c-.676938-1.6339925-1.197207-3.0812509-1.747428-4.8036097-.486136-1.3254941.481055-2.4057711 2.605487-3.1751082 1.762403-.6382323 4.247887-1.5346976 7.456452-2.6893958 1.035982-.3890206 1.303151.3078138 1.411948.6493028 1.33682 4.1959657 2.704852 7.5958305 3.770119 10.0188109h10.798561c.808118-1.9409557 1.761585-4.0457189 2.673328-6.5931021.812272-2.3269983 1.430937-2.4242299 2.490146-2.4469485h10.245882c1.085577-.0648271.83837.8952936.795659 1.0568893-.774846 2.6682814-1.650433 5.1442063-2.708204 7.9831613h9.273677c.710002.0083247 1.075229.3484376 1.09568 1.0203386.00758.0166262.00758 2.7690015 0 8.2571261-.014528.735922-.370525 1.1037642-1.067991 1.1035266h-21.060569v14.1024789h18.518989c.666706-.0335464.994755.2519792.984148.856577-.004532 8.2563688-.000477 7.5827713 0 8.2893114-.023136.5655182-.306142.8516629-.849018.8584342h-18.654119v14.4791476h23.850547c.359624-.0057901.535827.1631876.528609.5069332v9.0716511c-.003878.2945164-.173579.4364292-.509102.4257383h-23.870054v16.5345784c.032814 1.140841-.43624 1.711262-1.407162 1.711262-11.828729-.026978-.323036-.005363-11.851255 0-.930006 0-1.386318-.596663-1.368937-1.7899882v-16.4558522h-23.225496c-.272406.00088-.406841-.1336009-.403305-.4034429.003118-5.6693928.003048-8.6747318 0-9.016017.002783-.4047346.205594-.5996888.608435-.5848627h23.020366v-14.4791476c-9.999363-.0121476-15.886252-.0121476-17.660666 0-.764022-.0330312-1.128139-.4565944-1.092351-1.2706894-.004159-3.8801554-.004159-6.3561457 0-7.427971-.001247-.877546.462584-1.3127668 1.391492-1.3056622h17.361525v-14.1024789h-21.424679c-.517458.1796234-.707797-.1217304-.571018-.9040613zm-22.217575 62.5944621c1.371712-3.6077454 3.103195-9.2525736 3.862739-14.3357758 1.189208-7.9586969 1.277215-10.801145 1.283728-15.4146189-.093466-1.1015092.664161-1.1435672.995982-1.1435672h10.135056c1.071272.029516 1.315248.8048683 1.324744 2.8546647-.088071 4.6353552-.402572 9.3994637-1.0744 13.7035214-.685627 4.3924536-1.972806 10.1743894-3.30142 14.4105562-.361262.8561519-.590411 2.015828-2.34034 2.1476327-4.415534 0-7.788872 0-10.120015 0-1.676443.0019352-1.278922-1.0218823-.766074-2.2224131zm4.095221-61.3189206c-.571724-3.5998818-1.007629-5.8471709-1.888071-9.0167844-1.143252-3.3121614 2.024676-4.226424 3.499609-4.7628372 1.306408-.4751231 3.134683-1.1400419 5.484823-1.9947564 1.961192-.7851344 2.303003.6883874 2.508002 1.3852721 1.439854 4.8947043 2.55424 10.1779956 3.229306 15.7217168.045661.3749744.081646 1.1221765-.928071 1.1284581-4.28072 0-7.53286 0-9.756422 0-.5889 0-2.073212.275627-2.149176-2.461069zm.522136 23.2069861c-.565439-4.6955783-1.254623-8.7759117-2.72461-13.9700264-.6398-1.8751394.763769-1.9563246 1.392622-1.9571115 3.526264-.0044127 6.424136-.0052138 8.693618-.0024034.89158.0011041 2.596511-.2498024 3.132478 3.0482181 1.012967 4.4148337 1.81253 9.2656451 2.216452 14.3282752-.005904.5003967-.083597.9216406-.890371.9496603-4.455149 0-7.834547 0-10.138194 0-.469231 0-1.641487.0998836-1.681995-2.3966123z" fill="#fff" transform="translate(304 342.4)"/></g></svg>