<svg height="800" viewBox="0 0 800 800" width="800" xmlns="http://www.w3.org/2000/svg"><g fill="none" fill-rule="evenodd"><path d="m0 0h800v800h-800z" fill="#fff" fill-opacity=".01"/><g transform="translate(190 286)"><path d="m0 0h420v228h-420z" fill="#000" fill-rule="nonzero"/><g fill="#fff"><path d="m177.45294 152.720102 6.037814-8.315522 5.941208 8.315522h8.356335l-9.467292-13.005089 8.839359-11.989822h-8.308032l-5.120066 7.251908-5.409881-7.251908h-8.549545l9.274082 11.941476-10.046922 13.053435zm33.66685.580152c1.545681 0 2.978655-.249788 4.298924-.749363 1.320268-.499576 2.527831-1.168363 3.622688-2.006362v2.175573h6.762352v-24.994911h-6.762352v15.3257c-.644033 1.256997-1.561781 2.21586-2.753243 2.87659-1.191462.660729-2.399025.991094-3.622688.991094-.676236 0-1.33637-.112807-1.980403-.338422-.644034-.225615-1.215614-.580153-1.71474-1.063614-.499125-.48346-.901646-1.087786-1.207562-1.812977-.305916-.72519-.458874-1.603477-.458874-2.63486v-13.343511h-6.762352v13.875318c0 3.803223.96605 6.703986 2.898151 8.70229 1.9321 1.998304 4.492133 2.997455 7.680099 2.997455zm32.749103 0c2.060907 0 4.03326-.34648 5.917058-1.03944s3.437529-1.587362 4.661192-2.683206l-2.849848-4.979644c-.837243.644614-1.795243 1.240882-2.873999 1.788804s-2.519781.821883-4.323075.821883c-1.706689 0-3.139663-.418999-4.298924-1.256997-1.15926-.837998-1.915999-2.127227-2.270218-3.867685h17.823627c.225412-2.385072.088555-4.512298-.410571-6.381679s-1.280017-3.448685-2.342672-4.737913c-1.062655-1.289229-2.374874-2.272265-3.936655-2.94911s-3.292621-1.015267-5.19252-1.015267c-1.706689 0-3.340924.314249-4.902705.942748s-2.930352 1.522901-4.105713 2.683206c-1.175361 1.160306-2.10921 2.554283-2.801546 4.181934s-1.038504 3.440628-1.038504 5.438931c0 2.127227.330067 4.004665.990202 5.632316.660134 1.62765 1.569831 2.989398 2.729091 4.085242 1.159261 1.095844 2.527832 1.925784 4.105714 2.489821 1.577882.564038 3.284571.846056 5.120066.846056zm5.506487-16.147582h-11.351091c.450824-1.450382 1.183412-2.570399 2.197765-3.360051 1.014352-.789652 2.197764-1.184479 3.550234-1.184479 1.481277 0 2.69689.402884 3.64684 1.208652.949949.805767 1.602033 1.917727 1.956252 3.335878zm13.717913 27.847328c1.320269 0 2.527831-.217557 3.622688-.652672 1.094857-.435114 2.093109-1.079728 2.994756-1.933842s1.73889-1.893554 2.511731-3.118321c.77284-1.224766 1.497377-2.610687 2.173613-4.15776l11.979023-27.412214h-7.825007l-6.182722 16.244275-7.100469-16.244275h-7.825007l11.592603 24.26972-.57963 1.450382c-.57963 1.450381-1.312219 2.626802-2.197765 3.529262-.885546.902459-2.052856 1.353689-3.501932 1.353689-.418621 0-.861395-.040288-1.328319-.120865s-.9741-.217557-1.521529-.410941l-1.73889 6.333333c1.835495.580153 3.47778.870229 4.926856.870229zm37.724262-11.699746c1.674487 0 3.300671-.306191 4.878553-.918575 1.577882-.612383 2.970605-1.49067 4.178167-2.63486 1.207563-1.14419 2.181664-2.53011 2.922302-4.15776.740639-1.627651 1.110958-3.440628 1.110958-5.438932 0-1.998303-.370319-3.811281-1.110958-5.438931-.740638-1.627651-1.714739-3.013571-2.922302-4.157761-1.207562-1.14419-2.600285-2.022477-4.178167-2.63486s-3.204066-.918575-4.878553-.918575c-1.674488 0-3.300672.306192-4.878554.918575s-2.970605 1.49067-4.178167 2.63486c-1.207563 1.14419-2.181664 2.53011-2.922302 4.157761-.740639 1.62765-1.110958 3.440628-1.110958 5.438931 0 1.998304.370319 3.811281 1.110958 5.438932.740638 1.62765 1.714739 3.01357 2.922302 4.15776 1.207562 1.14419 2.600285 2.022477 4.178167 2.63486 1.577882.612384 3.204066.918575 4.878554.918575zm0-6.284987c-.901647 0-1.738891-.177269-2.511731-.531806-.77284-.354538-1.441025-.846056-2.004554-1.474555-.56353-.628499-1.006303-1.35369-1.328319-2.175573-.322017-.821883-.483026-1.716285-.483026-2.683206s.161009-1.861323.483026-2.683206c.322016-.821883.764789-1.547074 1.328319-2.175572.563529-.628499 1.231714-1.120017 2.004554-1.474555s1.610084-.531807 2.511731-.531807c.901646 0 1.73889.177269 2.51173.531807s1.441025.846056 2.004554 1.474555c.56353.628498 1.006303 1.353689 1.328319 2.175572.322017.821883.483026 1.716285.483026 2.683206s-.161009 1.861323-.483026 2.683206c-.322016.821883-.764789 1.547074-1.328319 2.175573-.563529.628499-1.231714 1.120017-2.004554 1.474555-.77284.354537-1.610084.531806-2.51173.531806zm28.498481 6.284987c1.545681 0 2.978655-.249788 4.298924-.749363 1.320269-.499576 2.527831-1.168363 3.622688-2.006362v2.175573h6.762352v-24.994911h-6.762352v15.3257c-.644033 1.256997-1.561781 2.21586-2.753243 2.87659-1.191462.660729-2.399025.991094-3.622688.991094-.676235 0-1.33637-.112807-1.980403-.338422-.644034-.225615-1.215613-.580153-1.714739-1.063614-.499126-.48346-.901647-1.087786-1.207563-1.812977-.305916-.72519-.458874-1.603477-.458874-2.63486v-13.343511h-6.762352v13.875318c0 3.803223.966051 6.703986 2.898151 8.70229 1.932101 1.998304 4.492134 2.997455 7.680099 2.997455z" fill-rule="nonzero"/><g transform="translate(73 74)"><path d="m0 0h26.2295082l26.8851434 39.4998494-13.116031 19.2664167z"/><path d="m0 0h26.2295082l53.7704918 79h-26.2295082z" transform="matrix(-1 0 0 1 80 0)"/><ellipse cx="65.57377" cy="65.833333" rx="13.114754" ry="13.166667"/><path d="m96 0h175v4h-175z"/><path d="m96 8h175v4h-175z" opacity=".8"/><path d="m96 16h175v4h-175z" opacity=".6"/></g></g></g></g></svg>